<?xml version="1.0" standalone="no"?>
<!DOCTYPE svg PUBLIC "-//W3C//DTD SVG 1.1//EN" "http://www.w3.org/Graphics/SVG/1.1/DTD/svg11.dtd" >
<svg xmlns="http://www.w3.org/2000/svg">
<metadata>Generated by IcoMoon</metadata>
<defs>
<font id="icomoon" horiz-adv-x="1024">
<font-face units-per-em="1024" ascent="960" descent="-64" />
<missing-glyph horiz-adv-x="1024" />
<glyph unicode="&#x20;" horiz-adv-x="512" d="" />
<glyph unicode="&#xe900;" glyph-name="adults1" d="M512 960v0c-282.77 0-512-229.23-512-512v0c0-282.77 229.23-512 512-512s512 229.23 512 512c0 282.77-229.23 512-512 512zM512 938.56c270.924-0.006 490.549-219.635 490.549-490.56 0-270.929-219.631-490.56-490.56-490.56s-490.56 219.631-490.56 490.56v0c0 0.003 0 0.007 0 0.011 0 270.923 219.626 490.549 490.549 490.549 0.008 0 0.015 0 0.023 0h-0.001zM246.891 503.573l15.083-15.147 56.459 56.533v-219.627h21.333v245.333h-25.749zM515.84 464.32c22.208 10.453 47.925 27.093 47.925 63.68 0 42.24-48.843 53.333-74.667 53.333s-74.667-11.093-74.667-53.333c0-36.587 25.728-53.227 47.936-63.68-25.419-10.773-58.603-29.547-58.603-74.987 0-50.667 55.829-64 85.333-64s85.333 13.333 85.333 64c0 45.44-33.173 64.213-58.592 74.987zM435.765 528c0 31.467 52.821 32 53.333 32s53.333-0.533 53.333-32c0-26.88-20.096-37.76-46.368-49.173-2.379-0.96-4.661-2.027-6.827-2.987l-0.139 0.107-0.128-0.107c-2.133 0.96-4.448 2.027-6.827 2.987-26.272 11.413-46.379 22.293-46.379 49.173zM489.099 346.667c-2.837 0-64 0.747-64 42.667 0 34.453 24.917 47.147 55.029 59.2 3.2 1.28 6.091 2.453 8.779 3.627l0.192-0.107 0.203 0.107c2.688-1.173 5.621-2.347 8.779-3.627 30.112-12.053 55.019-24.747 55.019-59.2 0-41.92-61.152-42.667-64-42.667zM777.099 464h-74.667v74.667h-21.333v-74.667h-74.667v-21.333h74.667v-74.667h21.333v74.667h74.667v21.333z" />
<glyph unicode="&#xe901;" glyph-name="adults2" d="M512 960v0c-282.77 0-512-229.23-512-512v0c0-282.77 229.23-512 512-512s512 229.23 512 512c0 282.77-229.23 512-512 512zM512 931.698c0.004 0 0.009 0 0.014 0 267.139 0 483.698-216.559 483.698-483.698s-216.559-483.698-483.698-483.698c-267.139 0-483.698 216.559-483.698 483.698 0 0 0 0 0 0v0c0.016 267.128 216.558 483.674 483.682 483.698h0.002zM264.647 491.378l19.726-20.48 48.356 46.507v-202.667h28.444v241.778h-28.8zM540.231 451.84c24.681 10.622 41.735 34.557 42.154 62.525l0.001 0.053c0 44.516-50.347 56.32-76.971 56.32s-76.985-11.804-76.985-56.32c0.419-28.024 17.479-51.963 41.721-62.406l0.448-0.172c-23.95-11.236-52.622-31.431-52.622-74.098 0-52.764 57.188-66.702 87.438-66.702s87.438 13.938 87.438 66.702c0 42.667-28.686 62.862-52.622 74.098zM456.875 514.418c0 27.307 48.085 27.876 48.54 27.876s48.526-0.711 48.526-27.876c0-24.32-17.92-33.991-43.221-44.942-1.764-0.853-3.456-1.564-5.077-2.276l-0.228 0.142-0.228-0.142c-1.636 0.711-3.314 1.422-5.077 2.276-25.316 10.951-43.236 20.622-43.236 44.942zM505.415 339.484c-2.844 0-58.994 0.853-58.994 38.258 0 31.716 23.367 43.662 51.612 55.040 2.489 0.996 4.836 1.849 7.111 2.844l0.313-0.142 0.327 0.142c2.204-0.996 4.565-1.849 7.111-2.844 28.231-11.378 51.598-23.324 51.598-55.040-0.085-37.404-56.263-38.258-59.079-38.258zM787.797 456.96h-71.111v71.111h-28.444v-71.111h-71.111v-28.444h71.111v-71.111h28.444v71.111h71.111v28.444z" />
<glyph unicode="&#xe902;" glyph-name="adults3" d="M512 960v0c-282.77 0-512-229.23-512-512v0c0-282.77 229.23-512 512-512s512 229.23 512 512c0 282.77-229.23 512-512 512zM512 917.547c0.019 0 0.042 0 0.064 0 259.323 0 469.547-210.223 469.547-469.547s-210.223-469.547-469.547-469.547c-259.323 0-469.547 210.223-469.547 469.547v0c0 0.025 0 0.055 0 0.085 0 259.276 210.185 469.461 469.461 469.461 0.007 0 0.015 0 0.022 0h-0.001zM270.933 489.387l22.805-22.4 42.88 43.52v-195.627h32v240.427h-32.747zM541.397 448.213c22.72 11.053 38.101 33.963 38.101 60.466 0 0.043 0 0.085 0 0.128v-0.007c0 44.8-49.877 56.747-76.245 56.747s-76.245-11.947-76.245-56.747c0-0.036 0-0.078 0-0.121 0-26.503 15.381-49.413 37.704-60.291l0.397-0.175c-28.501-11.98-48.15-39.668-48.15-71.944 0-0.057 0-0.114 0-0.171v0.009c0-52.907 56.427-66.987 86.293-66.987s86.293 14.080 86.293 66.987c0 0.040 0 0.087 0 0.134 0 32.284-19.647 59.98-47.638 71.781l-0.512 0.192zM503.211 533.547c0.427 0 44.288-0.427 44.288-24.747 0-22.4-16.64-31.36-40.171-41.813-1.474-0.533-2.719-1.108-3.907-1.774l0.131 0.067-0.299 0.213-0.32-0.213c-1.065 0.611-2.311 1.187-3.608 1.654l-0.168 0.053c-23.467 10.453-40.149 19.413-40.149 41.813 0 24.32 43.84 24.747 44.203 24.747zM503.211 341.12c-1.408 0-54.272 0.64-54.272 34.987 0 29.44 20.843 40.32 48.128 51.413 2.298 0.77 4.202 1.563 6.040 2.472l-0.28-0.125 0.405-0.213 0.384 0.213c1.57-0.79 3.481-1.584 5.452-2.25l0.33-0.097c27.264-11.093 48.128-21.973 48.128-51.413 0.021-34.133-51.925-34.987-54.293-34.987zM774.379 453.333h-64.341v65.707h-32v-65.707h-64.32v-32h64.32v-65.707h32v65.707h64.363v32z" />
<glyph unicode="&#xe903;" glyph-name="alert-attention2" d="M358.4 345.6h307.2v-76.8h-307.2v76.8zM691.2 652.8c42.415 0 76.8-34.385 76.8-76.8s-34.385-76.8-76.8-76.8c-42.415 0-76.8 34.385-76.8 76.8v0c0 42.415 34.385 76.8 76.8 76.8v0zM332.8 652.8c42.415 0 76.8-34.385 76.8-76.8s-34.385-76.8-76.8-76.8c-42.415 0-76.8 34.385-76.8 76.8v0c0 42.415 34.385 76.8 76.8 76.8v0zM511.488 960c-282.55-0.292-511.488-229.41-511.488-512 0-282.77 229.23-512 512-512s512 229.23 512 512v0c0 0.076 0 0.166 0 0.257 0 282.628-229.116 511.744-511.744 511.744-0.27 0-0.54 0-0.81-0.001h0.042zM512 38.4c-226.216 0-409.6 183.384-409.6 409.6s183.384 409.6 409.6 409.6c226.216 0 409.6-183.384 409.6-409.6v0c0-226.216-183.384-409.6-409.6-409.6v0z" />
<glyph unicode="&#xe904;" glyph-name="alert-error" horiz-adv-x="1138" d="M1123.138 104.429l-455.642 797.582c-19.945 34.866-56.918 57.981-99.29 57.981s-79.345-23.116-98.996-57.424l-0.294-0.557-455.528-797.582c-9.165-15.963-14.571-35.095-14.571-55.489 0-62.377 50.566-112.943 112.943-112.943 0.309 0 0.618 0.001 0.927 0.004h911.313c0.227-0.002 0.496-0.003 0.765-0.003 62.377 0 112.943 50.566 112.943 112.943 0 20.394-5.405 39.526-14.862 56.041l0.291-0.552zM568.244 49.778c-31.419 0-56.889 25.47-56.889 56.889s25.47 56.889 56.889 56.889c31.419 0 56.889-25.47 56.889-56.889v0c0-31.419-25.47-56.889-56.889-56.889v0zM625.133 277.333c0-31.419-25.47-56.889-56.889-56.889s-56.889 25.47-56.889 56.889v0 398.222c0 31.419 25.47 56.889 56.889 56.889s56.889-25.47 56.889-56.889v0-398.222z" />
<glyph unicode="&#xe905;" glyph-name="alert-error2" d="M691.2 652.8c42.415 0 76.8-34.385 76.8-76.8s-34.385-76.8-76.8-76.8c-42.415 0-76.8 34.385-76.8 76.8v0c0 42.415 34.385 76.8 76.8 76.8v0zM332.8 652.8c42.415 0 76.8-34.385 76.8-76.8s-34.385-76.8-76.8-76.8c-42.415 0-76.8 34.385-76.8 76.8v0c0 42.415 34.385 76.8 76.8 76.8v0zM511.488 960c-282.55-0.292-511.488-229.41-511.488-512 0-282.77 229.23-512 512-512s512 229.23 512 512v0c0 0.076 0 0.166 0 0.257 0 282.628-229.116 511.744-511.744 511.744-0.27 0-0.54 0-0.81-0.001h0.042zM512 38.4c-226.216 0-409.6 183.384-409.6 409.6s183.384 409.6 409.6 409.6c226.216 0 409.6-183.384 409.6-409.6v0c0-226.216-183.384-409.6-409.6-409.6v0zM512 396.8c-118.419-0.239-219.646-73.588-260.964-177.3l-0.668-1.9h523.264c-41.986 105.612-143.213 178.961-261.602 179.2h-0.030z" />
<glyph unicode="&#xe906;" glyph-name="alert-info1" d="M921.6 960h-819.2c-56.554 0-102.4-45.846-102.4-102.4v0-819.2c0-56.554 45.846-102.4 102.4-102.4v0h819.2c56.554 0 102.4 45.846 102.4 102.4v0 819.2c0 56.554-45.846 102.4-102.4 102.4v0zM460.8 755.2h102.4v-102.4h-102.4v102.4zM614.4 140.8h-204.8c-28.277 0-51.2 22.923-51.2 51.2s22.923 51.2 51.2 51.2v0h51.2v256c-28.277 0-51.2 22.923-51.2 51.2s22.923 51.2 51.2 51.2v0h102.4v-358.4h51.2c28.277 0 51.2-22.923 51.2-51.2s-22.923-51.2-51.2-51.2v0z" />
<glyph unicode="&#xe907;" glyph-name="alert-info2" d="M460.8 192h102.4v307.2h-102.4v-307.2zM512 960c-282.77 0-512-229.23-512-512s229.23-512 512-512c282.77 0 512 229.23 512 512v0c-0.102 282.728-229.271 511.898-511.99 512h-0.010zM512 38.4c-226.216 0-409.6 183.384-409.6 409.6s183.384 409.6 409.6 409.6c226.216 0 409.6-183.384 409.6-409.6v0c-0.306-226.093-183.508-409.295-409.571-409.6h-0.029zM460.8 601.6h102.4v102.4h-102.4v-102.4z" />
<glyph unicode="&#xe908;" glyph-name="alert-ok1" d="M512 960c-282.77 0-512-229.23-512-512s229.23-512 512-512c282.77 0 512 229.23 512 512v0c-0.311 282.645-229.355 511.689-511.97 512h-0.030zM756.804 569.617l-238.933-298.701c-8.883-11.025-22.088-18.258-37.001-19.108l-0.136-0.006h-2.833c-0.007 0-0.015 0-0.023 0-14.133 0-26.928 5.726-36.192 14.985l-119.466 119.466c-9.251 9.264-14.972 22.054-14.972 36.181 0 28.279 22.925 51.204 51.204 51.204 14.152 0 26.964-5.742 36.232-15.022l78.985-79.122 203.196 254.054c9.446 10.971 23.352 17.875 38.87 17.875 28.277 0 51.2-22.923 51.2-51.2 0-11.52-3.804-22.151-10.225-30.705l0.095 0.132z" />
<glyph unicode="&#xe909;" glyph-name="alert-ok2" d="M691.2 652.8c42.415 0 76.8-34.385 76.8-76.8s-34.385-76.8-76.8-76.8c-42.415 0-76.8 34.385-76.8 76.8v0c0 42.415 34.385 76.8 76.8 76.8v0zM332.8 652.8c42.415 0 76.8-34.385 76.8-76.8s-34.385-76.8-76.8-76.8c-42.415 0-76.8 34.385-76.8 76.8v0c0 42.415 34.385 76.8 76.8 76.8v0zM511.488 960c-282.55-0.292-511.488-229.41-511.488-512 0-282.77 229.23-512 512-512s512 229.23 512 512v0c0 0.076 0 0.166 0 0.257 0 282.628-229.116 511.744-511.744 511.744-0.27 0-0.54 0-0.81-0.001h0.042zM512 38.4c-226.216 0-409.6 183.384-409.6 409.6s183.384 409.6 409.6 409.6c226.216 0 409.6-183.384 409.6-409.6v0c0-226.216-183.384-409.6-409.6-409.6v0zM512 166.4c118.419 0.239 219.646 73.588 260.964 177.3l0.668 1.9h-523.264c41.986-105.612 143.213-178.961 261.602-179.2h0.030z" />
<glyph unicode="&#xe90a;" glyph-name="arr1-down" horiz-adv-x="1755" d="M773.12-26.697c27.767-22.399 63.483-35.955 102.364-35.955 44.767 0 85.338 17.971 114.89 47.092l-0.020-0.019 714.752 705.39c29.328 28.842 47.502 68.948 47.502 113.298s-18.174 84.457-47.48 113.277l-0.022 0.021c-29.544 29.046-70.095 46.978-114.834 46.978s-85.29-17.932-114.857-47.001l0.023 0.023-599.771-592.165-599.771 592.165c-29.544 29.046-70.095 46.978-114.834 46.978s-85.29-17.932-114.857-47.001l0.023 0.023c-29.328-28.842-47.502-68.948-47.502-113.298s18.174-84.457 47.48-113.277l0.022-0.021 714.752-705.39c3.78-3.862 7.739-7.496 11.885-10.912l0.257-0.205z" />
<glyph unicode="&#xe90b;" glyph-name="arr1-left" horiz-adv-x="600" d="M21.675 509.099c-13.055-16.214-20.954-37.059-20.954-59.748 0-26.127 10.474-49.807 27.452-67.071l-0.013 0.013 411.477-416.939c16.824-17.108 40.22-27.71 66.091-27.71s49.266 10.601 66.078 27.697l0.012 0.013c16.944 17.234 27.404 40.889 27.404 66.987s-10.46 49.753-27.417 67l0.013-0.013-345.429 349.867 345.429 349.867c16.939 17.221 27.396 40.861 27.396 66.944s-10.458 49.723-27.409 66.957l0.013-0.013c-16.805 17.151-40.206 27.783-66.091 27.783s-49.286-10.632-66.075-27.767l-0.015-0.016-411.477-416.683c-2.23-2.228-4.35-4.564-6.352-7.001l-0.133-0.167z" />
<glyph unicode="&#xe90c;" glyph-name="arr1-right" horiz-adv-x="597" d="M575.573 389.547c13.061 16.227 20.964 37.085 20.964 59.79 0 26.1-10.443 49.76-27.379 67.031l0.015-0.016-411.477 416.939c-16.824 17.108-40.22 27.71-66.091 27.71s-49.266-10.601-66.078-27.697l-0.012-0.013c-16.924-17.243-27.37-40.895-27.37-66.987s10.446-49.744 27.384-67.001l-0.014 0.015 345.429-349.867-345.429-349.867c-16.919-17.23-27.362-40.867-27.362-66.944s10.444-49.714 27.376-66.958l-0.014 0.014c16.824-17.108 40.22-27.71 66.091-27.71s49.266 10.601 66.078 27.697l0.012 0.013 411.563 416.939c2.196 2.15 4.26 4.403 6.198 6.765l0.117 0.147z" />
<glyph unicode="&#xe90d;" glyph-name="arr1-up" horiz-adv-x="1748" d="M769.566 923.007c27.688 22.223 63.251 35.666 101.953 35.666 44.58 0 84.994-17.836 114.495-46.76l-0.027 0.026 711.601-702.28c29.199-28.715 47.293-68.644 47.293-112.799s-18.094-84.084-47.271-112.777l-0.022-0.021c-29.414-28.918-69.786-46.771-114.328-46.771s-84.914 17.853-114.351 46.794l0.023-0.022-597.127 589.554-597.127-589.554c-29.414-28.918-69.786-46.771-114.328-46.771s-84.914 17.853-114.351 46.794l0.023-0.022c-29.199 28.715-47.293 68.644-47.293 112.799s18.094 84.084 47.271 112.777l0.022 0.021 711.601 702.28c3.641 4.369 7.719 7.573 11.943 11.069z" />
<glyph unicode="&#xe90e;" glyph-name="arr2-down" horiz-adv-x="1786" d="M955.965-36.679l803.557 838.468c16.22 17.15 26.191 40.357 26.191 65.892s-9.972 48.741-26.234 65.937l0.042-0.045c-15.848 16.806-38.264 27.269-63.124 27.269s-47.276-10.464-63.084-27.227l-0.040-0.043-740.434-772.665-740.434 772.665c-15.848 16.806-38.264 27.269-63.124 27.269s-47.276-10.464-63.084-27.227l-0.040-0.043c-16.2-17.159-26.158-40.362-26.158-65.892s9.958-48.733 26.201-65.938l-0.044 0.046 803.557-838.468c15.837-16.83 38.256-27.311 63.124-27.311s47.287 10.481 63.082 27.266l0.041 0.044z" />
<glyph unicode="&#xe90f;" glyph-name="arr2-left" horiz-adv-x="563" d="M15.002 411.802l460.8-460.8c9.198-8.892 21.744-14.372 35.569-14.372 28.277 0 51.2 22.923 51.2 51.2 0 13.826-5.48 26.371-14.386 35.584l-424.588 424.588 424.602 424.602c9.644 9.323 15.631 22.376 15.631 36.828 0 28.277-22.923 51.2-51.2 51.2-14.451 0-27.504-5.987-36.814-15.616l-460.814-460.814c-9.262-9.265-14.991-22.063-14.991-36.198s5.729-26.934 14.991-36.199v0z" />
<glyph unicode="&#xe910;" glyph-name="arr2-right" horiz-adv-x="563" d="M548.198 484.198l-460.8 460.8c-9.323 9.644-22.376 15.631-36.828 15.631-28.277 0-51.2-22.923-51.2-51.2 0-14.451 5.987-27.504 15.616-36.814l424.616-424.616-424.602-424.602c-9.644-9.323-15.631-22.376-15.631-36.828 0-28.277 22.923-51.2 51.2-51.2 14.451 0 27.504 5.987 36.814 15.616l460.814 460.814c9.262 9.265 14.991 22.063 14.991 36.198s-5.729 26.934-14.991 36.199v0z" />
<glyph unicode="&#xe911;" glyph-name="arr2-up" horiz-adv-x="1786" d="M829.718 935.447l-803.557-838.468c-16.214-17.136-26.183-40.328-26.183-65.847s9.969-48.711 26.225-65.892l-0.042 0.045c15.837-16.83 38.256-27.311 63.124-27.311s47.287 10.481 63.082 27.266l0.041 0.044 740.434 772.576 740.434-772.576c15.837-16.83 38.256-27.311 63.124-27.311s47.287 10.481 63.082 27.266l0.041 0.044c16.194 17.145 26.149 40.333 26.149 65.847s-9.955 48.702-26.192 65.893l0.043-0.046-803.557 838.468c-15.837 16.83-38.256 27.311-63.124 27.311s-47.287-10.481-63.082-27.266l-0.041-0.044z" />
<glyph unicode="&#xe912;" glyph-name="check" d="M881.778-64h-739.556c-78.547 0-142.222 63.675-142.222 142.222v0 739.556c0 78.547 63.675 142.222 142.222 142.222v0h597.333v-56.889h-597.333c-47.128 0-85.333-38.205-85.333-85.333v0-739.556c0-47.128 38.205-85.333 85.333-85.333v0h739.556c47.128 0 85.333 38.205 85.333 85.333v0 483.556h56.889v-483.556c0-78.547-63.675-142.222-142.222-142.222v0zM512 220.444c-15.708 0.003-29.928 6.373-40.22 16.668l-227.556 227.556c-9.881 10.22-15.969 24.16-15.969 39.521 0 31.419 25.47 56.889 56.889 56.889 15.362 0 29.301-6.089 39.537-15.985l-0.016 0.015 182.613-182.613 415.289 519.282c10.513 12.907 26.406 21.085 44.209 21.085 31.419 0 56.889-25.47 56.889-56.889 0-13.367-4.61-25.657-12.327-35.367l0.090 0.117-455.111-568.889c-9.881-12.252-24.568-20.284-41.153-21.213l-0.148-0.007z" />
<glyph unicode="&#xe913;" glyph-name="check-none" d="M881.778-64h-739.556c-78.547 0-142.222 63.675-142.222 142.222v0 739.556c0 78.547 63.675 142.222 142.222 142.222v0h739.556c78.547 0 142.222-63.675 142.222-142.222v0-739.556c0-78.547-63.675-142.222-142.222-142.222v0zM142.222 903.111c-47.128 0-85.333-38.205-85.333-85.333v0-739.556c0-47.128 38.205-85.333 85.333-85.333v0h739.556c47.128 0 85.333 38.205 85.333 85.333v0 739.556c0 47.128-38.205 85.333-85.333 85.333v0h-739.556z" />
<glyph unicode="&#xe914;" glyph-name="clear" d="M512 813.714c-201.978 0-365.714-163.736-365.714-365.714s163.736-365.714 365.714-365.714c201.978 0 365.714 163.736 365.714 365.714v0c-0.229 201.886-163.828 365.486-365.692 365.714h-0.022zM512 155.429c-161.583 0-292.571 130.989-292.571 292.571s130.989 292.571 292.571 292.571c161.583 0 292.571-130.989 292.571-292.571v0c-0.187-161.507-131.064-292.384-292.553-292.571h-0.018zM672.512 608.512c-6.618 6.616-15.759 10.708-25.856 10.708s-19.238-4.092-25.856-10.708l-108.8-108.8-108.8 108.8c-6.57 6.352-15.531 10.266-25.407 10.266-20.198 0-36.571-16.374-36.571-36.571 0-9.875 3.914-18.837 10.276-25.417l108.79-108.79-108.8-108.8c-6.888-6.659-11.165-15.983-11.165-26.305 0-20.198 16.374-36.571 36.571-36.571 10.322 0 19.646 4.277 26.296 11.155l108.81 108.81 108.8-108.8c6.57-6.352 15.531-10.266 25.407-10.266 20.198 0 36.571 16.374 36.571 36.571 0 9.875-3.914 18.837-10.276 25.417l-108.79 108.79 108.8 108.8c6.616 6.618 10.708 15.759 10.708 25.856s-4.092 19.238-10.708 25.856v0z" />
<glyph unicode="&#xe915;" glyph-name="clock" d="M512-64c-282.77 0-512 229.23-512 512s229.23 512 512 512c282.77 0 512-229.23 512-512v0c0-282.77-229.23-512-512-512v0zM512 860.843c-0.017 0-0.037 0-0.057 0-228.038 0-412.9-184.861-412.9-412.9s184.861-412.9 412.9-412.9c228.038 0 412.9 184.861 412.9 412.9v0c-0.227 227.939-184.914 412.665-412.815 412.956h-0.028zM743.196 398.393h-280.747v313.799c0 27.366 22.184 49.55 49.55 49.55s49.55-22.184 49.55-49.55v0-214.699h181.646c26.634-0.931 47.872-22.746 47.872-49.522s-21.238-48.591-47.787-49.519l-0.085-0.002z" />
<glyph unicode="&#xe916;" glyph-name="close" d="M563.712 466.286l303.287 303.287c6.352 6.57 10.266 15.531 10.266 25.407 0 20.198-16.374 36.571-36.571 36.571-9.875 0-18.837-3.914-25.417-10.276l-303.277-303.277-303.287 303.287c-6.57 6.352-15.531 10.266-25.407 10.266-20.198 0-36.571-16.374-36.571-36.571 0-9.875 3.914-18.837 10.276-25.417l303.277-303.277-303.287-303.287c-6.888-6.659-11.165-15.983-11.165-26.305 0-20.198 16.374-36.571 36.571-36.571 10.322 0 19.646 4.277 26.296 11.155l303.297 303.297 303.287-303.287c6.57-6.352 15.531-10.266 25.407-10.266 20.198 0 36.571 16.374 36.571 36.571 0 9.875-3.914 18.837-10.276 25.417l0.010-0.010z" />
<glyph unicode="&#xe917;" glyph-name="compare" d="M201.143 411.429c20.198 0 36.571 16.374 36.571 36.571v0 182.857h460.288l-47.287-47.287c-6.888-6.659-11.165-15.983-11.165-26.305 0-20.198 16.374-36.571 36.571-36.571 10.322 0 19.646 4.277 26.296 11.155l109.724 109.724c6.616 6.618 10.708 15.759 10.708 25.856s-4.092 19.238-10.708 25.856l-109.714 109.714c-6.57 6.352-15.531 10.266-25.407 10.266-20.198 0-36.571-16.374-36.571-36.571 0-9.875 3.914-18.837 10.276-25.417l47.277-47.277h-460.288c-40.396 0-73.143-32.747-73.143-73.143v0-182.857c0-20.198 16.374-36.571 36.571-36.571v0zM786.286 521.143c-20.198 0-36.571-16.374-36.571-36.571v0-219.429h-460.288l47.287 47.287c6.352 6.57 10.266 15.531 10.266 25.407 0 20.198-16.374 36.571-36.571 36.571-9.875 0-18.837-3.914-25.417-10.276l-109.704-109.704c-6.616-6.618-10.708-15.759-10.708-25.856s4.092-19.238 10.708-25.856l109.714-109.714c6.57-6.352 15.531-10.266 25.407-10.266 20.198 0 36.571 16.374 36.571 36.571 0 9.875-3.914 18.837-10.276 25.417l-47.277 47.277h460.288c40.396 0 73.143 32.747 73.143 73.143v0 219.429c0 20.198-16.374 36.571-36.571 36.571v0z" />
<glyph unicode="&#xe918;" glyph-name="cookies" horiz-adv-x="1464" d="M1430.265 261.281c-14.863-42.072-50.381-76.069-83.939-119.515-41.311-53.599-82.973-115.156-119.954-143.36-66.911-51.2-121.242-27.999-167.848-35.869s-119.252-35.109-191.81-23.874-82.154 27.56-119.954 23.874-107.198 55.091-119.954 83.675-83.471 64.366-119.954 107.549-37.449 83.383-59.948 143.36-12.347 199.768 11.995 322.677 140.112 174.402 191.81 227.065 112.757 89.059 251.787 107.549 145.73-13.839 145.73-28.145-26.975-3.365-26.975-68.374 80.311-67.73 94.413-81.92-33.178-133.968 13.488-191.429c47.777-58.748 136.192-25.103 175.367-40.96s17.964-42.803 53.979-68.345c31.071-22.060 75.6 5.383 94.413-13.692s10.474-106.35-22.645-200.265zM632.978 595.895c-36.219-0.116-65.536-29.505-65.536-65.74 0-36.308 29.433-65.741 65.741-65.741s65.741 29.433 65.741 65.741c0 0.010 0 0.020 0 0.030v-0.002c-0.067 36.306-29.513 65.712-65.828 65.712-0.041 0-0.082 0-0.124 0h0.006zM710.89 261.281c-26.327-0.1-47.631-21.465-47.631-47.806 0-26.403 21.404-47.806 47.806-47.806s47.806 21.403 47.806 47.806v0c-0.033 26.41-21.45 47.806-47.865 47.806-0.021 0-0.041 0-0.062 0h0.003zM1010.629 93.989c19.744 0.067 35.723 16.087 35.723 35.84 0 19.794-16.046 35.84-35.84 35.84s-35.84-16.046-35.84-35.84v0c0.033-19.801 16.093-35.84 35.898-35.84 0.021 0 0.041 0 0.062 0h-0.003zM824.788 667.604c-23.043-0.083-41.691-18.783-41.691-41.837 0-23.106 18.731-41.838 41.838-41.838s41.838 18.731 41.838 41.837v0c-0.033 23.114-18.778 41.838-41.896 41.838-0.031 0-0.062 0-0.093 0h0.005zM842.781 350.925c0-0.096-0.001-0.209-0.001-0.322 0-49.671 40.266-89.936 89.936-89.936s89.936 40.266 89.936 89.936c0 49.671-40.266 89.936-89.936 89.936-0.010 0-0.020 0-0.030 0h0.002c-0.035 0-0.076 0-0.117 0-49.528 0-89.69-40.1-89.79-89.605v-0.010zM968.587 846.863c-29.623-0.1-53.599-24.137-53.599-53.774 0-29.699 24.076-53.775 53.775-53.775s53.774 24.076 53.775 53.774v0c-0.050 29.71-24.146 53.775-53.862 53.775 0 0 0 0 0 0v0zM1022.537 655.638c-39.503-0.133-71.475-32.187-71.475-71.709 0-39.604 32.105-71.709 71.709-71.709s71.709 32.105 71.709 71.709c0 0.010 0 0.020 0 0.030v-0.002c-0.033 39.643-32.178 71.768-71.826 71.768-0.010 0-0.021 0-0.031 0h0.002zM1220.345 213.475c16.489 0.033 29.842 13.408 29.842 29.901 0 16.514-13.387 29.901-29.901 29.901s-29.901-13.387-29.901-29.901v0c0.033-16.521 13.434-29.901 29.959-29.901 0.031 0 0.062 0 0.093 0h-0.005zM1220.345 500.195c-29.652-0.083-53.658-24.14-53.658-53.804 0-29.715 24.089-53.804 53.804-53.804s53.804 24.089 53.804 53.804v0c0 0.009 0 0.019 0 0.029 0 29.753-24.111 53.875-53.861 53.892h-0.002zM364.895 543.203c-6.369 9.969-17.377 16.483-29.906 16.483-19.535 0-35.372-15.837-35.372-35.372s15.837-35.372 35.372-35.372c9.57 0 18.252 3.8 24.62 9.974l-0.009-0.009c-3.891-38.034-6.466-75.015-6.612-108.398-33.074-8.805-57.044-38.486-57.044-73.764 0-42.092 34.123-76.215 76.215-76.215 0.368 0 0.735 0.003 1.102 0.008l-0.055-0.001c1.521 0 2.926 0.351 4.476 0.439 18.403-56.232 24.517-97.836 62.376-141.78 43.886-50.849 128.907-93.301 144.179-127.064 2.322-4.638 4.822-8.616 7.654-12.327l-0.135 0.185c-5.773 0.306-12.531 0.481-19.331 0.481-12.932 0-25.716-0.632-38.324-1.866l1.598 0.126c-40.024-6.7-102.4-30.047-164.776-20.48s-70.568 23.406-103.014 20.48-92.072 46.987-102.985 71.358-71.709 55.062-102.985 91.78-32.183 71.153-51.522 122.353-10.591 170.452 10.299 275.31 120.393 148.802 164.805 193.741 96.87 76.069 216.298 91.75c21.282 3.126 45.849 4.911 70.834 4.911 2.633 0 5.261-0.020 7.884-0.059l-0.397 0.005c-48.067-40.457-82.763-95.412-97.387-158.082l-0.39-1.984c-6.963-34.875-12.639-70.861-17.379-106.496zM170.072 499.141c-30.735-0.314-55.53-25.303-55.53-56.083 0-30.975 25.111-56.086 56.086-56.086s56.084 25.109 56.086 56.083v0c-0.1 31.062-25.303 56.203-56.378 56.203-0.062 0-0.124 0-0.185 0h0.010zM237.012 213.65c-22.377-0.215-40.433-18.405-40.433-40.812 0-22.541 18.273-40.814 40.814-40.814s40.814 18.273 40.814 40.814c0 0.010 0 0.019 0 0.029v-0.002c-0.033 22.597-18.359 40.902-40.96 40.902-0.093 0-0.185 0-0.278-0.001h0.014z" />
<glyph unicode="&#xe919;" glyph-name="credit-card" horiz-adv-x="1503" d="M1331.764 959.098h-1160.408c-94.852-0.808-171.432-77.887-171.432-172.853 0-0.266 0.001-0.533 0.002-0.799v0.041-674.825c-0.001-0.247-0.002-0.54-0.002-0.833 0-94.966 76.581-172.045 171.356-172.852l0.077-0.001h1160.408c94.82 0.85 171.358 77.913 171.358 172.852 0 0.293-0.001 0.586-0.002 0.878v-0.045 674.825c0.001 0.225 0.002 0.492 0.002 0.758 0 94.939-76.538 172.002-171.277 172.852l-0.081 0.001zM171.356 860.043h1160.408c40.741-0.298 73.654-33.394 73.654-74.177 0-0.133 0-0.265-0.001-0.398v0.020-66.212h-1307.714v66.212c-0.001 0.112-0.001 0.245-0.001 0.378 0 40.783 32.912 73.879 73.626 74.177h0.028zM1331.764 36.033h-1160.408c-40.75 0.34-73.654 33.453-73.654 74.252 0 0.133 0 0.266 0.001 0.399v-0.020 394.418h1307.714v-394.418c0.001-0.112 0.001-0.245 0.001-0.378 0-40.798-32.903-73.912-73.622-74.251h-0.032zM1265.175 266.761c0.246 0.004 0.536 0.006 0.827 0.006 30.010 0 54.338-24.328 54.338-54.338s-24.328-54.338-54.338-54.338c-30.008 0-54.334 24.324-54.338 54.331v0c-0.001 0.112-0.001 0.245-0.001 0.378 0 29.644 23.904 53.706 53.488 53.96h0.024zM1119.448 266.761c0.223 0.003 0.487 0.005 0.752 0.005 30.010 0 54.338-24.328 54.338-54.338s-24.328-54.338-54.338-54.338c-30.008 0-54.335 24.325-54.338 54.332v0c-0.001 0.112-0.001 0.244-0.001 0.376 0 29.802 24.16 53.962 53.962 53.962 0 0 0.001 0 0.001 0v0zM973.721 266.761c0.223 0.003 0.487 0.005 0.752 0.005 30.010 0 54.338-24.328 54.338-54.338s-24.328-54.338-54.338-54.338c-30.008 0-54.335 24.325-54.338 54.332v0c-0.001 0.090-0.001 0.196-0.001 0.302 0 29.686 23.937 53.78 53.563 54.035h0.024zM624.696 266.761c0.223 0.003 0.487 0.005 0.752 0.005 30.010 0 54.338-24.328 54.338-54.338s-24.328-54.338-54.338-54.338c-30.008 0-54.335 24.325-54.338 54.332v0c-0.001 0.112-0.001 0.244-0.001 0.377 0 29.671 23.947 53.748 53.567 53.961h0.020zM478.969 266.761c0.223 0.003 0.487 0.005 0.752 0.005 30.010 0 54.338-24.328 54.338-54.338s-24.328-54.338-54.338-54.338c-30.008 0-54.335 24.325-54.338 54.332v0c-0.001 0.112-0.001 0.244-0.001 0.377 0 29.671 23.947 53.748 53.567 53.961h0.020zM770.424 266.761c0.246 0.004 0.536 0.006 0.827 0.006 30.010 0 54.338-24.328 54.338-54.338s-24.328-54.338-54.338-54.338c-30.008 0-54.334 24.324-54.338 54.331v0c-0.001 0.112-0.001 0.245-0.001 0.378 0 29.644 23.904 53.706 53.488 53.96h0.024z" />
<glyph unicode="&#xe91a;" glyph-name="ico_confirm_email" d="M512 960v0c-282.77 0-512-229.23-512-512v0c0-282.77 229.23-512 512-512s512 229.23 512 512c0 282.77-229.23 512-512 512zM512 938.571c270.935 0 490.571-219.636 490.571-490.571s-219.636-490.571-490.571-490.571c-270.935 0-490.571 219.636-490.571 490.571v0c0 0.003 0 0.007 0 0.011 0 270.929 219.631 490.56 490.56 490.56 0.004 0 0.008 0 0.012 0h-0.001zM734.624 464.971v93.867l-184.928-151.019c-8.957-6.811-20.298-10.912-32.597-10.912s-23.64 4.101-32.731 11.010l0.134-0.097-184.928 151.019v-253.717c-0.025-0.333-0.039-0.722-0.039-1.114 0-8.403 6.479-15.294 14.714-15.949l0.056-0.004h232.139c1.4-8.185 3.177-15.276 5.428-22.153l-0.308 1.086h-237.259c-20.003 0.65-35.971 17.022-35.971 37.123 0 0.352 0.005 0.702 0.015 1.051l-0.001-0.051v276.043c-0.009 0.301-0.014 0.655-0.014 1.010 0 20.099 15.969 36.468 35.912 37.111l0.059 0.002h405.589c20.002-0.645 35.971-17.014 35.971-37.113 0-0.355-0.005-0.709-0.015-1.062l0.001 0.052v-122.869c-5.809 2.401-12.892 4.692-20.178 6.462l-1.049 0.215zM719.893 598.219h-405.589c-7.091-0.477-12.816-5.765-13.961-12.605l-0.012-0.089 198.165-161.835c0.38-0.338 0.728-0.687 1.056-1.054l0.011-0.013c5.027-2.925 11.064-4.651 17.504-4.651s12.477 1.726 17.673 4.741l-0.169-0.090c0.338 0.38 0.687 0.728 1.054 1.056l0.013 0.011 198.229 161.824c-1.157 6.928-6.882 12.216-13.927 12.691l-0.046 0.002zM804.053 243.381c-3.2-8.704-11.733-8.704-27.296-8.704h-152.331c-15.541 0-24.096 0-27.296 8.704-0.232 1.010-0.365 2.17-0.365 3.361 0 6.187 3.593 11.534 8.806 14.070l0.093 0.041c18.041 12.815 29.671 33.633 29.671 57.168 0 0.696-0.010 1.389-0.030 2.080l0.002-0.101c0 57.941 33.397 78.475 54.4 83.765v12.235c0.189 5.866 4.99 10.55 10.885 10.55s10.696-4.684 10.885-10.533v-12.252c20.992-5.333 54.4-25.824 54.4-83.765-0.018-0.592-0.028-1.289-0.028-1.987 0-23.538 11.634-44.358 29.466-57.024l0.216-0.146c5.301-2.578 8.889-7.923 8.889-14.106 0-1.193-0.134-2.354-0.386-3.47l0.020 0.105zM744.117 320c0 61.248-43.093 64-43.531 64s-43.52-2.752-43.52-64c0.021-0.716 0.032-1.559 0.032-2.405 0-23.915-9.426-45.628-24.766-61.626l0.030 0.031h136.448c-15.304 15.972-24.726 37.686-24.726 61.601 0 0.844 0.012 1.684 0.035 2.522l-0.003-0.123zM700.587 213.333c0.897-0.14 1.931-0.22 2.984-0.22 8.691 0 16.109 5.454 19.017 13.126l0.047 0.14 21.205-4.757c-6.916-17.474-23.665-29.609-43.248-29.609s-36.332 12.135-43.138 29.295l-0.11 0.314 21.205 4.8c2.967-7.831 10.405-13.298 19.12-13.298 1.029 0 2.041 0.076 3.029 0.223l-0.112-0.014z" />
<glyph unicode="&#xe91b;" glyph-name="ico_alert_active" d="M512-64c-282.77 0-512 229.23-512 512s229.23 512 512 512c282.77 0 512-229.23 512-512v0c0-282.77-229.23-512-512-512v0zM512 938.571c-0.003 0-0.007 0-0.011 0-270.935 0-490.571-219.636-490.571-490.571s219.636-490.571 490.571-490.571c270.935 0 490.571 219.636 490.571 490.571v0c0 270.931-219.63 490.565-490.56 490.571v0zM709.952 392.437l-4.789 20.629c14.357 3.275 41.504 20.821 41.504 63.755s-27.136 60.512-41.483 63.765l4.736 20.619c20.096-4.533 58.080-28.021 58.080-84.384s-37.973-79.755-58.048-84.341zM728.885 476.821c0.062-0.895 0.097-1.94 0.097-2.993 0-20.906-13.883-38.569-32.933-44.273l-0.327-0.084-4.789 20.629c9.916 4.979 16.603 15.068 16.603 26.72s-6.686 21.741-16.431 26.642l-0.171 0.078 4.747 20.629c19.395-5.743 33.303-23.4 33.303-44.305 0-1.056-0.035-2.104-0.105-3.142l0.008 0.141zM692.619 334.507c-3.659-10.059-14.656-10.059-41.248-10.059h-278.741c-26.581 0-37.589 0-41.248 10.059-3.253 8.981 3.829 14.816 12.8 22.176 35.104 25.709 57.644 66.775 57.644 113.105 0 1.228-0.016 2.452-0.047 3.672l0.004-0.18c0 108.8 65.333 142.005 99.552 147.776v29.984c0 5.891 4.776 10.667 10.667 10.667s10.667-4.776 10.667-10.667v0-29.984c34.219-5.771 99.552-38.987 99.552-147.776-0.028-1.040-0.044-2.264-0.044-3.492 0-46.331 22.54-87.397 57.251-112.831l0.392-0.274c8.971-7.317 16.064-13.152 12.8-22.133zM600.885 473.28c0 122.197-87.989 127.68-88.885 127.68s-88.885-5.483-88.885-127.68c0.033-1.201 0.051-2.614 0.051-4.032 0-49.8-22.915-94.248-58.776-123.374l-0.294-0.231c3.392 0 6.517 0 8.533 0h278.741c2.027 0 5.141 0 8.533 0-36.155 29.358-59.071 73.806-59.071 123.606 0 1.433 0.019 2.861 0.057 4.284l-0.004-0.21zM316.448 476.821c-0.125-0.939-0.197-2.024-0.197-3.126 0-10.848 6.939-20.076 16.62-23.487l0.174-0.054-4.747-20.629c-19.516 7.24-33.173 25.7-33.173 47.349s13.656 40.109 32.824 47.236l0.348 0.113 4.789-20.629c-9.881-3.462-16.84-12.708-16.84-23.579 0-1.111 0.073-2.205 0.214-3.277l-0.014 0.126zM277.333 476.821c0-43.008 27.136-60.512 41.483-63.755l-4.736-20.629c-20.096 4.544-58.080 28.032-58.080 84.384s37.973 79.787 58.048 84.384l4.8-20.619c-14.357-3.253-41.515-20.811-41.515-63.723zM512 266.667c33.333 0 46.837 20.448 49.333 31.264l20.8-4.715c-3.808-16.501-23.349-47.712-70.133-47.712s-66.283 31.189-70.123 47.691l20.789 4.757c2.517-10.827 16.064-31.285 49.333-31.285z" />
<glyph unicode="&#xe91c;" glyph-name="chart-const" horiz-adv-x="1076" d="M1028.321-64h-980.313c-26.514 0-48.008 21.494-48.008 48.008v0 927.985c0 26.514 21.494 48.008 48.008 48.008s48.008-21.494 48.008-48.008v0-879.977h932.306c26.514 0 48.008-21.494 48.008-48.008s-21.494-48.008-48.008-48.008v0zM1069.127 454.001c0.221 1.73 0.347 3.731 0.347 5.761s-0.126 4.031-0.371 5.995l0.024-0.235v4.801c-2.435 5.572-5.667 10.342-9.614 14.415l0.012-0.013-139.702 135.861c-8.677 8.627-20.639 13.96-33.845 13.96s-25.168-5.333-33.848-13.963l0.002 0.002c-8.771-8.701-14.201-20.759-14.201-34.085s5.43-25.384 14.197-34.082l53.771-53.771h-703.79c-26.514 0-48.008-21.494-48.008-48.008s21.494-48.008 48.008-48.008v0h703.79l-59.529-59.529c-8.627-8.677-13.96-20.639-13.96-33.845s5.333-25.168 13.963-33.848l-0.002 0.002c8.701-8.771 20.759-14.201 34.085-14.201s25.384 5.43 34.082 14.197l141.625 141.625s0 0 0 0c3.896 3.931 7.12 8.537 9.478 13.625l0.123 0.297c1.564 4.392 2.597 9.47 2.875 14.748l0.006 0.134c0.446 1.562 0.702 3.357 0.702 5.211 0 1.041-0.081 2.063-0.237 3.061l0.014-0.111z" />
<glyph unicode="&#xe91e;" glyph-name="chart-down" horiz-adv-x="1082" d="M1027.841-64h-979.833c-26.514 0-48.008 21.494-48.008 48.008v0 927.985c0 26.514 21.494 48.008 48.008 48.008s48.008-21.494 48.008-48.008v0-879.977h931.826c26.514 0 48.008-21.494 48.008-48.008s-21.494-48.008-48.008-48.008v0zM1078.729 265.331c-0.542-1.836-1.363-3.434-2.427-4.838l0.027 0.037c-1.836-3.862-4.083-7.183-6.751-10.114l0.030 0.033c-1.010-1.249-2.112-2.351-3.319-3.328l-0.041-0.033c-3.365-3.744-7.543-6.688-12.261-8.564l-0.221-0.077c-4.82-1.968-10.405-3.186-16.252-3.359l-0.070-0.002h-203.552c-26.514 0-48.008 21.494-48.008 48.008s21.494 48.008 48.008 48.008v0h84.493l-230.436 229.956-118.098-118.098c-8.677-8.627-20.639-13.96-33.845-13.96s-25.168 5.333-33.848 13.963l0.002-0.002-301.967 301.007c-8.771 8.701-14.201 20.759-14.201 34.085s5.43 25.384 14.197 34.082l0.003 0.003c8.627 8.559 20.491 13.865 33.594 13.922h0.011c0.082 0.001 0.18 0.001 0.278 0.001 13.188 0 25.134-5.318 33.811-13.926l-0.003 0.003 267.882-268.362 118.098 118.098c8.701 8.771 20.759 14.201 34.085 14.201s25.384-5.43 34.082-14.197l264.044-264.044v76.332c0 26.514 21.494 48.008 48.008 48.008s48.008-21.494 48.008-48.008v0-192.030c-0.113-6.076-1.336-11.834-3.476-17.125l0.115 0.322z" />
<glyph unicode="&#xe91f;" glyph-name="chart-up" horiz-adv-x="1080" d="M1076.808 762.689l-2.4 5.281c-1.904 3.664-4.141 6.82-6.746 9.629l0.025-0.028c-0.881 1.518-2.003 2.794-3.33 3.818l-0.030 0.022c-3.568 3.425-7.684 6.314-12.198 8.516l-0.284 0.125c-4.873 1.826-10.505 2.882-16.384 2.882-0.147 0-0.294-0.001-0.441-0.002h-201.609c-26.514 0-48.008-21.494-48.008-48.008s21.494-48.008 48.008-48.008v0h80.653l-229.956-229.956-116.178 119.059c-8.677 8.627-20.639 13.96-33.845 13.96s-25.168-5.333-33.848-13.963l0.002 0.002-302.447-301.967c-8.771-8.701-14.201-20.759-14.201-34.085s5.43-25.384 14.197-34.082l0.003-0.003c8.674-8.605 20.62-13.923 33.808-13.923 0.098 0 0.195 0 0.293 0.001h-0.015c0.082-0.001 0.18-0.001 0.278-0.001 13.188 0 25.134 5.318 33.811 13.926l-0.003-0.003 267.882 268.362 118.098-118.098c8.701-8.771 20.759-14.201 34.085-14.201s25.384 5.43 34.082 14.197l264.044 264.044v-76.332c0-26.514 21.494-48.008 48.008-48.008s48.008 21.494 48.008 48.008v0 192.030c-0.113 6.076-1.336 11.834-3.476 17.125l0.115-0.322zM1027.841-64h-977.913c-26.514 0-48.008 21.494-48.008 48.008v0 927.985c0 26.514 21.494 48.008 48.008 48.008s48.008-21.494 48.008-48.008v0-879.977h929.905c26.514 0 48.008-21.494 48.008-48.008s-21.494-48.008-48.008-48.008v0z" />
<glyph unicode="&#xe920;" glyph-name="dep-erotyka-1" d="M497.778 888.889c-235.641 0-426.667-191.025-426.667-426.667s191.025-426.667 426.667-426.667c235.641 0 426.667 191.025 426.667 426.667v0c-0.275 235.53-191.135 426.391-426.64 426.667h-0.027zM497.778 92.444c-204.223 0-369.778 165.555-369.778 369.778s165.555 369.778 369.778 369.778c204.223 0 369.778-165.555 369.778-369.778v0c-0.227-204.131-165.646-369.551-369.756-369.778h-0.022zM220.956 528.014l46.564-40.704 31.289 25.116v-192.427h56.889v284.444h-62.578zM535.922 474.51c18.919 14.497 30.996 37.102 30.996 62.527 0 0.628-0.007 1.254-0.022 1.879l0.002-0.093c0 49.607-47.758 72.192-92.103 72.192s-92.075-22.585-92.075-72.192c-0.013-0.534-0.020-1.163-0.020-1.794 0-25.417 12.065-48.016 30.781-62.382l0.187-0.138c-25.175-16.211-41.611-44.097-41.611-75.821 0-0.744 0.009-1.486 0.027-2.226l-0.002 0.11c0-65.764 67.186-83.143 102.713-83.143s102.684 17.38 102.684 83.143c0.016 0.64 0.026 1.394 0.026 2.15 0 31.708-16.424 59.581-41.229 75.574l-0.354 0.214zM474.795 554.155c0.341 0 35.214-1.849 35.214-15.303 0-15.531-9.188-22.556-34.588-34.133l-0.626 0.313-0.626-0.142c-25.401 11.378-34.56 18.46-34.56 34.133 0 13.397 34.958 15.104 35.186 15.104zM474.795 370.347c-1.934 0-45.739 1.166-45.739 26.254 0 22.756 13.511 32.114 43.776 44.601l1.138 0.455 0.91-0.484 0.91 0.484 1.109-0.455c30.265-12.487 43.776-21.874 43.776-44.601-0.142-25.088-43.947-26.226-45.966-26.283zM696.889 490.667v56.889h-56.889v-56.889h-56.889v-56.889h56.889v-56.889h56.889v56.889h56.889v56.889h-56.889z" />
<glyph unicode="&#xe921;" glyph-name="dep-film-1" d="M405.447 565.561v-263.595l213.106 131.783zM824.889 903.111v-56.889h-28.444v56.889h-56.889v-113.778h-455.111v113.778h-56.889v-56.889h-28.444v56.889h-56.889v-938.667h56.889v56.889h28.444v-56.889h56.889v113.778h455.111v-113.778h56.889v56.889h28.444v-56.889h56.889v938.667h-56.889zM227.556 78.222h-28.444v28.444h28.444v-28.444zM227.556 163.556h-28.444v28.444h28.444v-28.444zM227.556 248.889h-28.444v28.444h28.444v-28.444zM227.556 334.222h-28.444v28.444h28.444v-28.444zM227.556 419.556h-28.444v28.444h28.444v-28.444zM227.556 504.889h-28.444v28.444h28.444v-28.444zM227.556 590.222h-28.444v28.444h28.444v-28.444zM227.556 675.556h-28.444v28.444h28.444v-28.444zM227.556 760.889h-28.444v28.444h28.444v-28.444zM739.556 135.111h-455.111v597.333h455.111v-597.333zM824.889 78.222h-28.444v28.444h28.444v-28.444zM824.889 163.556h-28.444v28.444h28.444v-28.444zM824.889 248.889h-28.444v28.444h28.444v-28.444zM824.889 334.222h-28.444v28.444h28.444v-28.444zM824.889 419.556h-28.444v28.444h28.444v-28.444zM824.889 504.889h-28.444v28.444h28.444v-28.444zM824.889 590.222h-28.444v28.444h28.444v-28.444zM824.889 675.556h-28.444v28.444h28.444v-28.444zM824.889 760.889h-28.444v28.444h28.444v-28.444z" />
<glyph unicode="&#xe929;" glyph-name="dep-muzyka-1" d="M625.323 386.247h1.252v379.477l-347.819-99.783 0.711-262.628c-15.565 5.221-33.488 8.234-52.114 8.234-27.67 0-53.787-6.648-76.841-18.434l0.956 0.444c-22.57-11.126-37.984-33.675-38.711-59.894l-0.002-0.095c0-43.634 46.62-74.098 113.38-74.098 0.92-0.020 2.006-0.031 3.093-0.031 24.061 0 46.848 5.456 67.192 15.198l-0.937-0.404c23.759 10.401 40.178 33.464 40.76 60.428l0.001 0.073s0 0 0 0.199v0l-0.796 289.081 234.667 67.328v-227.556c-15.774 5.426-33.949 8.559-52.856 8.559-27.309 0-53.091-6.536-75.868-18.129l0.951 0.439c-22.415-11.102-37.696-33.56-38.341-59.649l-0.002-0.085c0-44.004 46.962-74.78 114.204-74.78 0.909-0.019 1.98-0.031 3.053-0.031 23.693 0 46.123 5.404 66.126 15.047l-0.912-0.396c20.525 9.526 35.276 28.457 38.806 51.103l0.049 0.381zM269.454 323.868c-11.916-5.417-25.842-8.575-40.504-8.575-1.010 0-2.017 0.015-3.020 0.045l0.147-0.003c-35.356 0-56.889 12.629-56.889 18.204 1.503 5.24 5.288 9.379 10.181 11.337l0.116 0.041c13.273 6.696 28.931 10.617 45.505 10.617 0.952 0 1.902-0.013 2.848-0.039l-0.139 0.003c0.94 0.035 2.044 0.055 3.152 0.055 14.6 0 28.392-3.456 40.604-9.593l-0.521 0.237c4.906-1.533 8.451-5.925 8.703-11.179l0.001-0.028v-0.313c-0.868-5.375-4.902-9.61-10.096-10.764l-0.087-0.016zM560.356 384.37c-11.545-5.258-25.040-8.323-39.25-8.323-1.042 0-2.079 0.016-3.113 0.049l0.151-0.004c-35.897 0-57.685 13.113-57.685 18.859 1.398 5.126 5.060 9.189 9.816 11.11l0.111 0.040c12.876 6.483 28.062 10.278 44.135 10.278 0.974 0 1.945-0.014 2.912-0.042l-0.142 0.003c0.931 0.034 2.025 0.053 3.123 0.053 14.779 0 28.738-3.508 41.091-9.736l-0.524 0.239c5.087-1.629 8.762-6.178 9.072-11.628l0.002-0.034v-0.284c-0.687-5.257-4.575-9.443-9.617-10.566l-0.083-0.015zM910.222 390.656c-15.918 20.468-25.519 46.534-25.519 74.843 0 7.73 0.716 15.293 2.085 22.626l-0.118-0.758-29.639 7.083-25.003 7.168-67.868-232.050c-26.51 18.197-59.291 29.061-94.609 29.061-10.993 0-21.74-1.052-32.146-3.062l1.059 0.17c-25.554-4.547-45.994-22.591-53.903-46.359l-0.141-0.489c-12.373-41.899 23.751-84.082 87.836-102.599 14.298-4.438 30.753-7.086 47.797-7.281l0.103-0.001c2.58-0.315 5.568-0.495 8.597-0.495 32.245 0 59.734 20.362 70.31 48.929l0.168 0.519s0 0.171 0 0.228v0l54.386 185.998c3.983-6.699 7.851-12.372 12.027-17.796l-0.308 0.416c21.626-25.655 34.768-59.077 34.768-95.57 0-2.763-0.075-5.508-0.224-8.234l0.017 0.379 55.865-8.533c0.435 4.99 0.683 10.797 0.683 16.661 0 49.199-17.45 94.323-46.5 129.519l0.277-0.346zM687.986 199.879c-33.963 9.813-51.001 27.904-49.436 33.252 2.829 4.522 7.574 7.62 13.070 8.158l0.071 0.006c4.676 1.105 10.046 1.739 15.563 1.739 0.259 0 0.517-0.001 0.775-0.004h-0.039c0.22 0.002 0.48 0.002 0.74 0.002 27.151 0 52.019-9.774 71.278-25.996l-0.167 0.137c3.353-2.218 5.534-5.971 5.534-10.235 0-1.042-0.13-2.054-0.376-3.020l0.018 0.085v-0.284c-2.617-8.875-27.477-12.316-56.946-3.812z" />
<glyph unicode="&#xe934;" glyph-name="doc" d="M823.223 557.714c0 0.009 0 0.020 0 0.030 0 13.166-6.958 24.707-17.397 31.148l-0.158 0.091-251.941 215.771c-2.651 2.265-5.689 4.19-8.98 5.648l-0.236 0.093c-0.585 0.219-1.243 0.293-1.829 0.512-3.243 1.214-6.991 1.991-10.897 2.155l-0.074 0.002c-0.695 0-1.243 0.402-1.938 0.402h-256c-40.396 0-73.143-32.747-73.143-73.143v0-585.143c0-40.396 32.747-73.143 73.143-73.143v0h475.429c40.396 0 73.143 32.747 73.143 73.143v0 398.775c0.256 1.353 0.878 2.414 0.878 3.657zM566.491 697.637l120.686-103.351h-120.686v103.351zM273.92 155.429v585.143h219.429v-146.286c0-40.396 32.747-73.143 73.143-73.143v0h182.857v-365.714h-475.429zM511.634 374.857c-30.297 0-54.857-24.56-54.857-54.857v0-73.143c0-30.297 24.56-54.857 54.857-54.857s54.857 24.56 54.857 54.857v0 73.143c0 30.297-24.56 54.857-54.857 54.857v0zM529.92 246.857c0-10.099-8.187-18.286-18.286-18.286s-18.286 8.187-18.286 18.286v0 73.143c0 10.099 8.187 18.286 18.286 18.286s18.286-8.187 18.286-18.286v0-73.143zM328.777 374.857h-18.286v-182.857h18.286c91.429 0 91.429 50.688 91.429 91.429s0 91.429-91.429 91.429zM347.063 229.339v108.215c36.571-3.438 36.571-19.273 36.571-54.126s0-50.688-36.571-54.089zM604.050 283.429c-0.001-0.12-0.001-0.262-0.001-0.404 0-50.067 40.421-90.693 90.41-91.024h18.318v36.571h-18.286c-0.025 0-0.054 0-0.084 0-29.711 0-53.797 24.086-53.797 53.797 0 0.373 0.004 0.745 0.011 1.116l-0.001-0.055c0.289 30.359 24.967 54.859 55.367 54.859 0.142 0 0.284-0.001 0.426-0.002h16.362v36.571h-16.384c-0.109 0-0.238 0.001-0.367 0.001-50.605 0-91.665-40.868-91.975-91.4v-0.029z" />
<glyph unicode="&#xe935;" glyph-name="dot-list" horiz-adv-x="1032" d="M1031.998 448.129c0-284.978-231.021-515.999-515.999-515.999s-515.999 231.021-515.999 515.999c0 284.978 231.021 515.999 515.999 515.999s515.999-231.021 515.999-515.999z" />
<glyph unicode="&#xe936;" glyph-name="filter" d="M874.423 265.143c-0.229-43.595-27.665-80.724-66.185-95.291l-0.704-0.234v-50.761c-0.647-19.973-16.994-35.919-37.065-35.919s-36.418 15.946-37.064 35.86l-0.002 0.059v50.761c-39.342 14.634-66.861 51.865-66.861 95.525s27.52 80.891 66.159 95.295l0.703 0.229v416.475c0.647 19.973 16.994 35.919 37.065 35.919s36.418-15.946 37.064-35.86l0.002-0.059v-416.475c39.224-14.8 66.66-51.929 66.889-95.496v-0.028zM770.487 235.886c16.085 0.227 29.037 13.32 29.037 29.437 0 16.259-13.181 29.44-29.44 29.44s-29.44-13.181-29.44-29.44c0-0.063 0-0.127 0.001-0.19v0.010c0.145-16.29 13.384-29.44 29.695-29.44 0.052 0 0.104 0 0.155 0h-0.008zM548.096 531.712v-412.855c0-20.46-16.586-37.047-37.047-37.047s-37.047 16.586-37.047 37.047v0 412.672c-41.446 14.743-70.587 53.632-70.587 99.328s29.14 84.585 69.852 99.099l0.735 0.229v46.958c0 20.46 16.586 37.047 37.047 37.047s37.047-16.586 37.047-37.047v0-46.958c41.446-14.743 70.587-53.632 70.587-99.328s-29.14-84.585-69.852-99.099l-0.735-0.229zM511.049 664.137c-18.105-0.227-32.694-14.957-32.694-33.095 0-18.279 14.818-33.097 33.097-33.097s33.097 14.818 33.097 33.097c0 0.063 0 0.127-0.001 0.19v-0.010c-0.45 18.071-15.206 32.549-33.343 32.549-0.055 0-0.11 0-0.164 0h0.008zM288.695 312.283v-193.426c-0.647-19.973-16.994-35.919-37.065-35.919s-36.418 15.946-37.064 35.86l-0.002 0.059v193.243c-41.446 14.743-70.587 53.632-70.587 99.328s29.14 84.585 69.852 99.099l0.735 0.229v266.386c0.647 19.973 16.994 35.919 37.065 35.919s36.418-15.946 37.064-35.86l0.002-0.059v-266.386c41.446-14.743 70.587-53.632 70.587-99.328s-29.14-84.585-69.852-99.099l-0.735-0.229zM251.648 444.672c-17.909-0.349-32.293-14.949-32.293-32.908 0-18.178 14.736-32.914 32.914-32.914 18.176 0 32.911 14.733 32.914 32.908v0c-0.45 18.091-15.222 32.586-33.38 32.586-0.055 0-0.11 0-0.164 0h0.008z" />
<glyph unicode="&#xe937;" glyph-name="gps" d="M877.714 484.571h-75.666c-17.387 132.406-121.071 236.090-251.993 253.317l-1.484 0.16v75.666h-73.143v-75.666c-132.406-17.387-236.090-121.071-253.317-251.993l-0.16-1.484h-75.666v-73.143h75.666c17.387-132.406 121.071-236.090 251.993-253.317l1.484-0.16v-75.666h73.143v75.666c132.406 17.387 236.090 121.071 253.317 251.993l0.16 1.484h75.666v73.143zM512 228.571c-121.187 0-219.429 98.242-219.429 219.429s98.242 219.429 219.429 219.429c121.187 0 219.429-98.242 219.429-219.429v0c-0.125-121.137-98.292-219.304-219.417-219.429h-0.012zM512 557.714c-60.594 0-109.714-49.121-109.714-109.714s49.121-109.714 109.714-109.714c60.594 0 109.714 49.121 109.714 109.714v0c0 60.594-49.121 109.714-109.714 109.714v0zM512 411.429c-20.198 0-36.571 16.374-36.571 36.571s16.374 36.571 36.571 36.571c20.198 0 36.571-16.374 36.571-36.571v0c0-20.198-16.374-36.571-36.571-36.571v0z" />
<glyph unicode="&#xe938;" glyph-name="hand-up" horiz-adv-x="922" d="M629.35-64v0c-87.040 0-183.603 9.882-187.699 10.24l-288 42.854v441.344l117.094 10.24c10.24 9.677 46.49 51.2 97.28 192.512 13.714 33.636 35.758 61.492 63.622 81.857l0.531 0.37c17.050 14.438 42.957 36.403 51.558 184.32 3.106 34.153 31.603 60.705 66.302 60.705 2.182 0 4.34-0.105 6.468-0.31l-0.271 0.021c46.794-1.975 87.565-26.093 112.325-62.082l0.315-0.484c20.227-35.205 32.158-77.405 32.158-122.391 0-32.835-6.356-64.186-17.905-92.889l0.595 1.674c-3.635-9.779-9.626-22.886-16.384-37.53-5.581-12.083-15.36-33.28-22.528-52.275 11.725 0 24.525 0 37.734 0 11.261 1.113 24.34 1.748 37.569 1.748 41.133 0 80.832-6.14 118.231-17.553l-2.865 0.752c48.918-29.818 82.067-81.323 86.089-140.816l0.030-0.547c-2.662-20.906-11.178-39.448-23.83-54.371l0.125 0.151-0.614-0.819 3.84-6.4c11.455-16.6 18.883-36.787 20.458-58.596l0.022-0.387c-2.067-25.198-13.046-47.499-29.74-64.044l-0.007-0.007-4.403-5.12c1.178-2.714 2.714-6.349 4.096-10.24 6.562-14.538 10.892-31.424 12.060-49.174l0.023-0.439c-2.948-32.291-18.29-60.518-41.164-80.254l-0.155-0.13c-2.56-2.662-5.12-5.12-7.27-7.68 0-2.714 0-5.53 0.307-8.448 0.37-3.502 0.581-7.566 0.581-11.679 0-12.519-1.954-24.582-5.572-35.9l0.23 0.834c-20.873-43.311-55.74-77.118-98.629-96.116l-1.262-0.499c-30.614-8.192-65.763-12.898-102.011-12.898-6.8 0-13.561 0.166-20.28 0.493l0.947-0.037zM454.349 47.923c0.563 0 94.31-9.523 174.95-9.523v0c5.294-0.311 11.485-0.488 17.717-0.488 25.304 0 49.926 2.921 73.547 8.443l-2.176-0.429c13.756 8.931 25.328 19.932 34.61 32.704l0.257 0.371c0 2.97 0 6.195-0.307 9.472-0.441 3.714-0.693 8.016-0.693 12.377 0 14.911 2.944 29.135 8.283 42.122l-0.269-0.738c7.468 14.006 16.653 25.983 27.482 36.241l0.064 0.060c3.482 3.686 8.653 9.165 11.93 13.261-1.126 2.765-2.714 6.502-4.147 10.24-7.767 16.583-12.3 36.009-12.3 56.494 0 0.641 0.004 1.281 0.013 1.92l-0.001-0.097c3.668 22.784 14.125 42.656 29.198 57.973l-0.014-0.014 2.15 2.611c-0.922 1.485-1.792 3.021-2.714 4.557-12.849 17.939-20.546 40.328-20.546 64.516 0 1.349 0.024 2.692 0.071 4.030l-0.005-0.194c3.639 18.884 11.724 35.46 23.131 49.175l-0.143-0.176c1.178 1.69 2.406 3.328 3.584 5.12-6.554 15.204-15.558 28.163-26.651 38.991l-0.024 0.023c-28.114 3.349-60.676 5.26-93.683 5.26-5.387 0-10.762-0.051-16.125-0.152l0.804 0.012c-48.384 0-91.187-1.741-91.597-1.741l-32.563-1.331-15.002 28.928c-25.6 49.203 4.506 114.176 31.027 171.469 5.427 11.878 10.24 22.426 13.414 30.72 6.631 16.6 10.477 35.84 10.477 55.978 0 22.896-4.971 44.631-13.894 64.184l0.396-0.968c-0.943 1.405-1.886 2.624-2.901 3.777l0.034-0.040c-12.39-121.651-40.96-168.96-83.558-205.414-14.573-9.63-26.151-22.702-33.745-38.091l-0.252-0.565c-56.32-157.389-112.077-244.122-165.939-257.741l-8.141-1.331-34.048-2.97v-259.021l198.4-29.542zM102.4-12.8h-102.4v460.8h102.4v-460.8z" />
<glyph unicode="&#xe939;" glyph-name="home" d="M801.097 119.333h-72.631v291.145c0 0.014 0 0.030 0 0.047 0 15.491 9.69 28.72 23.34 33.954l0.249 0.084-241.371 241.993-241.371-241.993c13.859-5.387 23.512-18.603 23.552-34.080v-291.15h-72.594v254.757h-36.315c-19.976 0.29-36.058 16.551-36.058 36.568 0 9.972 3.991 19.012 10.463 25.609l-0.006-0.006 326.802 327.534c6.552 6.551 15.603 10.603 25.6 10.603s19.048-4.052 25.6-10.603v0l326.802-327.534c6.467-6.592 10.458-15.632 10.458-25.604 0-20.017-16.082-36.278-36.031-36.568h-36.342v-254.757zM619.52 119.333h-72.594v181.979h-72.631v-181.979h-72.631v218.368c0 0.065-0.001 0.142-0.001 0.219 0 20.064 16.255 36.332 36.314 36.352h145.264c20.041-0.020 36.28-16.272 36.28-36.315 0-0.090 0-0.18-0.001-0.27v0.014-218.368z" />
<glyph unicode="&#xe93a;" glyph-name="info" d="M786.286 813.714h-585.143c-40.396 0-73.143-32.747-73.143-73.143v0-585.143c0-40.396 32.747-73.143 73.143-73.143v0h585.143c40.396 0 73.143 32.747 73.143 73.143v0 585.143c0 40.396-32.747 73.143-73.143 73.143v0zM201.143 155.429v585.143h585.143v-585.143h-585.143zM493.714 594.286c20.198 0 36.571 16.374 36.571 36.571s-16.374 36.571-36.571 36.571c-20.198 0-36.571-16.374-36.571-36.571v0c0-20.198 16.374-36.571 36.571-36.571v0zM566.857 301.714h-36.571v219.429c0 20.198-16.374 36.571-36.571 36.571v0h-36.571c-20.198 0-36.571-16.374-36.571-36.571s16.374-36.571 36.571-36.571v0-182.857h-36.571c-20.198 0-36.571-16.374-36.571-36.571s16.374-36.571 36.571-36.571v0h146.286c20.198 0 36.571 16.374 36.571 36.571s-16.374 36.571-36.571 36.571v0z" />
<glyph unicode="&#xe93b;" glyph-name="link" d="M749.714 228.571c0-20.198-16.374-36.571-36.571-36.571v0h-438.857c-20.198 0-36.571 16.374-36.571 36.571v0 438.857c0 20.198 16.374 36.571 36.571 36.571v0h219.429v73.143h-219.429c-60.594 0-109.714-49.121-109.714-109.714v0-438.857c0-60.594 49.121-109.714 109.714-109.714v0h438.857c60.594 0 109.714 49.121 109.714 109.714v0 219.429h-73.143v-219.429zM820.041 754.542c-3.791 8.987-10.799 15.994-19.545 19.695l-0.24 0.090c-4.125 1.776-8.926 2.811-13.968 2.816h-182.859c-20.198 0-36.571-16.374-36.571-36.571s16.374-36.571 36.571-36.571v0h94.574l-303.287-303.287c-6.888-6.659-11.165-15.983-11.165-26.305 0-20.198 16.374-36.571 36.571-36.571 10.322 0 19.646 4.277 26.296 11.155l303.297 303.297v-94.574c0-20.198 16.374-36.571 36.571-36.571s36.571 16.374 36.571 36.571v0 182.857c-0.005 5.044-1.040 9.846-2.906 14.207l0.090-0.236z" />
<glyph unicode="&#xe93c;" glyph-name="list" d="M783.799 289.353c1.12 3.061 1.866 6.602 2.080 10.286l0.005 0.101c0 0.695 0.402 1.28 0.402 1.975v438.857c0 40.396-32.747 73.143-73.143 73.143v0h-438.857c-40.396 0-73.143-32.747-73.143-73.143v0-585.143c0-40.396 32.747-73.143 73.143-73.143v0h256c4.797 0.045 9.353 1.022 13.513 2.758l-0.238-0.088c1.527 0.989 4.85 2.906 8.204 4.775l1.963 1.004 219.429 182.857c0.475 0.439 0.805 1.061 1.28 1.499 0.935 0.931 1.81 1.921 2.618 2.965l0.052 0.070c1.917 2.121 3.584 4.525 4.922 7.126l0.088 0.188c0.561 1.064 1.128 2.355 1.611 3.688l0.071 0.226zM274.286 740.571h438.857v-402.286h-146.286c-40.396 0-73.143-32.747-73.143-73.143v0-109.714h-219.429v585.143zM566.857 196.937v68.206h81.847zM384 484.571h146.286c20.198 0 36.571 16.374 36.571 36.571s-16.374 36.571-36.571 36.571v0h-146.286c-20.198 0-36.571-16.374-36.571-36.571s16.374-36.571 36.571-36.571v0zM384 594.286h146.286c20.198 0 36.571 16.374 36.571 36.571s-16.374 36.571-36.571 36.571v0h-146.286c-20.198 0-36.571-16.374-36.571-36.571s16.374-36.571 36.571-36.571v0zM530.286 374.857c20.198 0 36.571 16.374 36.571 36.571s-16.374 36.571-36.571 36.571v0h-146.286c-20.198 0-36.571-16.374-36.571-36.571s16.374-36.571 36.571-36.571v0h146.286z" />
<glyph unicode="&#xe93d;" glyph-name="list-add" d="M877.714 155.429h-73.143v73.143c0 20.198-16.374 36.571-36.571 36.571s-36.571-16.374-36.571-36.571v0-73.143h-73.143c-20.198 0-36.571-16.374-36.571-36.571s16.374-36.571 36.571-36.571v0h73.143v-73.143c0-20.198 16.374-36.571 36.571-36.571s36.571 16.374 36.571 36.571v0 73.143h73.143c20.198 0 36.571 16.374 36.571 36.571s-16.374 36.571-36.571 36.571v0zM548.571 557.714h-146.286c-20.198 0-36.571-16.374-36.571-36.571s16.374-36.571 36.571-36.571v0h146.286c20.198 0 36.571 16.374 36.571 36.571s-16.374 36.571-36.571 36.571v0zM548.571 667.429h-146.286c-20.198 0-36.571-16.374-36.571-36.571s16.374-36.571 36.571-36.571v0h146.286c20.198 0 36.571 16.374 36.571 36.571s-16.374 36.571-36.571 36.571v0zM548.571 448h-146.286c-20.198 0-36.571-16.374-36.571-36.571s16.374-36.571 36.571-36.571v0h146.286c20.198 0 36.571 16.374 36.571 36.571s-16.374 36.571-36.571 36.571v0zM512 155.429h-219.429v585.143h438.857v-365.714c0-20.198 16.374-36.571 36.571-36.571s36.571 16.374 36.571 36.571v0 365.714c0 40.396-32.747 73.143-73.143 73.143v0h-438.857c-40.396 0-73.143-32.747-73.143-73.143v0-585.143c0-40.396 32.747-73.143 73.143-73.143v0h219.429c20.198 0 36.571 16.374 36.571 36.571s-16.374 36.571-36.571 36.571v0z" />
<glyph unicode="&#xe93e;" glyph-name="list-ok" d="M548.571 557.714h-146.286c-20.198 0-36.571-16.374-36.571-36.571s16.374-36.571 36.571-36.571v0h146.286c20.198 0 36.571 16.374 36.571 36.571s-16.374 36.571-36.571 36.571v0zM548.571 667.429h-146.286c-20.198 0-36.571-16.374-36.571-36.571s16.374-36.571 36.571-36.571v0h146.286c20.198 0 36.571 16.374 36.571 36.571s-16.374 36.571-36.571 36.571v0zM548.571 448h-146.286c-20.198 0-36.571-16.374-36.571-36.571s16.374-36.571 36.571-36.571v0h146.286c20.198 0 36.571 16.374 36.571 36.571s-16.374 36.571-36.571 36.571v0zM512 155.429h-219.429v585.143h438.857v-402.286c0-20.198 16.374-36.571 36.571-36.571s36.571 16.374 36.571 36.571v0 402.286c0 40.396-32.747 73.143-73.143 73.143v0h-438.857c-40.396 0-73.143-32.747-73.143-73.143v0-585.143c0-40.396 32.747-73.143 73.143-73.143v0h219.429c20.198 0 36.571 16.374 36.571 36.571s-16.374 36.571-36.571 36.571v0zM900.571 257.134c-6.202 4.999-14.177 8.024-22.859 8.024-11.524 0-21.802-5.33-28.506-13.659l-0.055-0.071-120.686-150.967-44.251 44.251c-6.57 6.352-15.531 10.266-25.407 10.266-20.198 0-36.571-16.374-36.571-36.571 0-9.875 3.914-18.837 10.276-25.417l73.133-73.133c6.6-6.602 15.711-10.692 25.778-10.715h2.052c10.743 0.612 20.17 5.774 26.46 13.571l0.055 0.070 146.286 182.857c5.021 6.209 8.060 14.201 8.060 22.903 0 11.54-5.345 21.831-13.694 28.534l-0.072 0.056z" />
<glyph unicode="&#xe93f;" glyph-name="location" d="M512 82.286l-27.575 31.671c-8.485 9.691-207.689 240.091-226.743 422.217l-1.243 16.786c0 3.401-0.293 6.985-0.293 10.459 0 141.385 114.615 256 256 256s256-114.615 256-256v0c0-3.657 0-7.058-0.293-10.679l-1.207-16.165c-19.2-182.528-218.441-412.928-226.743-422.619zM512 740.571c-0.758 0.011-1.653 0.018-2.549 0.018-98.535 0-178.611-79.027-180.306-177.157l-0.002-0.159 1.097-19.237c12.91-122.295 128-280.43 181.76-348.562 53.87 68.133 168.85 226.194 181.76 348.233l1.097 19.566c-1.697 98.289-81.774 177.316-180.308 177.316-0.896 0-1.791-0.007-2.684-0.020l0.135 0.002zM512 433.92c-60.594 0-109.714 49.121-109.714 109.714s49.121 109.714 109.714 109.714c60.594 0 109.714-49.121 109.714-109.714v0c-0.062-60.546-49.159-109.605-109.714-109.605v0zM512 580.206c-20.198 0-36.571-16.374-36.571-36.571s16.374-36.571 36.571-36.571c20.198 0 36.571 16.374 36.571 36.571v0c-0.021 20.182-16.386 36.535-36.571 36.535v0z" />
<glyph unicode="&#xe940;" glyph-name="lock" d="M804.571 576h-36.937c-2.487 109.275-26.368 256-255.634 256s-253.147-146.725-255.634-256h-36.937c-20.198 0-36.571-16.374-36.571-36.571v0-365.714c0-40.396 32.747-73.143 73.143-73.143v0h512c40.396 0 73.143 32.747 73.143 73.143v0 365.714c0 20.198-16.374 36.571-36.571 36.571v0zM512 758.857c162.889 0 180.626-84.626 182.565-182.857h-365.129c1.902 98.231 19.675 182.857 182.565 182.857zM256 173.714v329.143h512v-329.143h-512zM512 429.714c-20.198 0-36.571-16.374-36.571-36.571v0-109.714c0-20.198 16.374-36.571 36.571-36.571s36.571 16.374 36.571 36.571v0 109.714c0 20.198-16.374 36.571-36.571 36.571v0z" />
<glyph unicode="&#xe941;" glyph-name="mail" d="M786.286 704h-585.143c-40.396 0-73.143-32.747-73.143-73.143v0-365.714c0-40.396 32.747-73.143 73.143-73.143v0h585.143c40.396 0 73.143 32.747 73.143 73.143v0 365.714c0 40.396-32.747 73.143-73.143 73.143v0zM762.002 630.857l-255.049-191.561c-5.134-1.513-11.033-2.383-17.134-2.383-2.403 0-4.774 0.135-7.106 0.398l0.286-0.026c-1.187 1.217-2.465 2.333-3.828 3.341l-0.085 0.060-253.586 190.171h536.503zM201.143 265.143v292.571l232.594-174.409c16.671-11.983 37.495-19.163 59.995-19.163s43.325 7.18 60.305 19.375l-0.309-0.211 232.558 174.409v-292.571h-585.143z" />
<glyph unicode="&#xe942;" glyph-name="menu" d="M219.429 630.857h585.143c20.198 0 36.571 16.374 36.571 36.571s-16.374 36.571-36.571 36.571v0h-585.143c-20.198 0-36.571-16.374-36.571-36.571s16.374-36.571 36.571-36.571v0zM804.571 484.571h-585.143c-20.198 0-36.571-16.374-36.571-36.571s16.374-36.571 36.571-36.571v0h585.143c20.198 0 36.571 16.374 36.571 36.571s-16.374 36.571-36.571 36.571v0zM804.571 265.143h-585.143c-20.198 0-36.571-16.374-36.571-36.571s16.374-36.571 36.571-36.571v0h585.143c20.198 0 36.571 16.374 36.571 36.571s-16.374 36.571-36.571 36.571v0z" />
<glyph unicode="&#xe943;" glyph-name="money" horiz-adv-x="896" d="M448 960c-247.040 0-448-100.48-448-224v-576c0-123.456 200.96-224 448-224s448 100.544 448 224v576c0 123.52-200.96 224-448 224zM448 864c232.256 0 352-89.6 352-128s-119.744-128-352-128-352 89.6-352 128 119.744 128 352 128zM800 160c0-38.4-119.744-128-352-128s-352 89.6-352 128v149.888c102.187-54.119 223.383-85.892 352-85.892s249.813 31.773 356.168 87.897l-4.168-2.005v-149.888zM448 320c-232.256 0-352 89.6-352 128v149.888c102.187-54.119 223.383-85.892 352-85.892s249.813 31.773 356.168 87.897l-4.168-2.005v-149.888c0-38.4-119.744-128-352-128z" />
<glyph unicode="&#xe944;" glyph-name="pdf" d="M823.223 557.714c0 0.009 0 0.020 0 0.030 0 13.166-6.958 24.707-17.397 31.148l-0.158 0.091-251.941 215.771c-2.653 2.256-5.691 4.18-8.977 5.647l-0.239 0.095c-0.585 0.219-1.243 0.293-1.829 0.512-3.243 1.214-6.991 1.991-10.897 2.155l-0.074 0.002c-0.695 0-1.243 0.402-1.938 0.402h-256c-40.396 0-73.143-32.747-73.143-73.143v0-585.143c0-40.396 32.747-73.143 73.143-73.143v0h475.429c40.396 0 73.143 32.747 73.143 73.143v0 398.775c0.256 1.353 0.878 2.414 0.878 3.657zM566.491 697.637l120.686-103.351h-120.686v103.351zM273.92 155.429v585.143h219.429v-146.286c0-40.396 32.747-73.143 73.143-73.143v0h182.857v-365.714h-475.429zM365.349 374.857h-54.857v-182.857h36.571v73.143h18.286c30.297 0 54.857 24.56 54.857 54.857s-24.56 54.857-54.857 54.857v0zM365.349 301.714h-18.286v36.571h18.286c10.099 0 18.286-8.187 18.286-18.286s-8.187-18.286-18.286-18.286v0zM475.063 374.857h-18.286v-182.857h18.286c50.495 0 91.429 40.934 91.429 91.429s-40.934 91.429-91.429 91.429v0zM493.349 231.717v103.424c21.477-7.765 36.549-27.978 36.549-51.712s-15.072-43.947-36.167-51.591l-0.382-0.121zM603.063 301.714v-109.714h36.571v73.143h73.143v36.571h-73.143v36.571h73.143v36.571h-109.714v-73.143z" />
<glyph unicode="&#xe945;" glyph-name="phone" d="M676.571 813.714h-365.714c-40.396 0-73.143-32.747-73.143-73.143v0-585.143c0-40.396 32.747-73.143 73.143-73.143v0h365.714c40.396 0 73.143 32.747 73.143 73.143v0 585.143c0 40.396-32.747 73.143-73.143 73.143v0zM310.857 740.571h365.714v-365.714h-365.714v365.714zM310.857 155.429v146.286h365.714v-146.286h-365.714zM347.429 192h73.143v73.143h-73.143v-73.143zM457.143 192h73.143v73.143h-73.143v-73.143zM566.857 192h73.143v73.143h-73.143v-73.143z" />
<glyph unicode="&#xe946;" glyph-name="photo" d="M603.429 576c-80.791 0-146.286-65.494-146.286-146.286s65.494-146.286 146.286-146.286c80.791 0 146.286 65.494 146.286 146.286v0c0 80.791-65.494 146.286-146.286 146.286v0zM603.429 356.571c-40.396 0-73.143 32.747-73.143 73.143s32.747 73.143 73.143 73.143c40.396 0 73.143-32.747 73.143-73.143v0c0-40.396-32.747-73.143-73.143-73.143v0zM822.857 685.714h-475.429c0 20.198-16.374 36.571-36.571 36.571v0h-109.714c-20.198 0-36.571-16.374-36.571-36.571v0c-40.396 0-73.143-32.747-73.143-73.143v0-365.714c0-40.396 32.747-73.143 73.143-73.143v0h658.286c40.396 0 73.143 32.747 73.143 73.143v0 365.714c0 40.396-32.747 73.143-73.143 73.143v0zM164.571 246.857v365.714h658.286v-365.714h-658.286zM201.143 283.429h73.143v292.571h-73.143v-292.571z" />
<glyph unicode="&#xe947;" glyph-name="photo-none1" d="M512-64c-282.77 0-512 229.23-512 512s229.23 512 512 512c282.77 0 512-229.23 512-512v0c0-282.77-229.23-512-512-512v0zM512 938.56c-0.027 0-0.059 0-0.091 0-270.888 0-490.485-219.598-490.485-490.485 0-129.151 49.916-246.643 131.509-334.236l-0.272 0.295 111.509 109.867h30.389l-127.093-125.12c88.532-87.397 210.234-141.376 344.544-141.376 270.911 0 490.528 219.617 490.528 490.528s-219.617 490.528-490.528 490.528c-0.004 0-0.008 0-0.012 0h0.001zM738.581 661.333h-30.4l140.171 138.027 15.083-15.040zM597.333 544c-53.019 0-96-42.981-96-96s42.981-96 96-96c53.019 0 96 42.981 96 96v0c-0.073 52.99-43.010 95.927-95.993 96h-0.007zM597.333 373.333c-41.237 0-74.667 33.429-74.667 74.667s33.429 74.667 74.667 74.667c41.237 0 74.667-33.429 74.667-74.667v0c-0.049-41.218-33.449-74.618-74.662-74.667h-0.005zM288 629.333h85.333c5.891 0 10.667 4.776 10.667 10.667s-4.776 10.667-10.667 10.667v0h-85.333c-5.891 0-10.667-4.776-10.667-10.667s4.776-10.667 10.667-10.667v0zM736 618.667h-448c-37.888 0-53.333-15.467-53.333-53.333v-245.333c0-37.867 15.445-53.333 53.333-53.333h448c37.888 0 53.333 15.467 53.333 53.333v245.333c0 37.867-15.445 53.333-53.333 53.333zM768 320c0-26.027-5.984-32-32-32h-448c-26.027 0-32 5.973-32 32v245.333c0 26.027 5.973 32 32 32h448c26.016 0 32-5.973 32-32v-245.333zM320 352h21.333v192h-21.333v-192z" />
<glyph unicode="&#xe948;" glyph-name="photo-none2" d="M512 960v0c-282.77 0-512-229.23-512-512v0c0-282.77 229.23-512 512-512s512 229.23 512 512c0 282.77-229.23 512-512 512zM691.044 647.111h40.235l132.58 132.551c81.37-86.33 131.378-203.003 131.378-331.356 0-267.060-216.495-483.556-483.556-483.556-128.36 0-245.038 50.014-331.612 131.617l0.241-0.225 110.080 110.080h-40.235l-89.956-90.027c-82.115 86.49-132.62 203.682-132.62 332.671 0 267.060 216.495 483.556 483.556 483.556 128.96 0 246.13-50.483 332.825-132.764l-0.213 0.2zM596.196 535.467c-53.865-0.283-97.422-44.014-97.422-97.919 0-54.080 43.84-97.92 97.92-97.92 54.054 0 97.879 43.799 97.92 97.844v0.004c-0.178 54.157-44.122 97.991-98.304 97.991-0.040 0-0.080 0-0.121 0h0.006zM596.196 368.071c-38.156 0.282-68.978 31.278-68.978 69.474 0 38.37 31.105 69.476 69.476 69.476s69.476-31.105 69.476-69.476c0-0.024 0-0.049 0-0.073v0.004c-0.21-38.376-31.368-69.405-69.773-69.405-0.070 0-0.141 0-0.211 0h0.011zM290.987 611.556h84.196c7.855 0 14.222 6.368 14.222 14.222s-6.368 14.222-14.222 14.222v0h-84.196c-7.855 0-14.222-6.368-14.222-14.222s6.368-14.222 14.222-14.222v0zM733.013 608.569h-442.027c-39.467 0-56.32-16.64-56.32-56.036v-240.498c0-39.253 16.853-56.036 56.32-56.036h442.027c39.467 0 56.32 16.782 56.32 56.036v240.498c0 39.396-16.853 56.036-56.32 56.036zM760.889 312.036c0-23.467-4.167-27.591-27.876-27.591h-442.027c-23.708 0-27.876 4.124-27.876 27.591v240.498c0 23.467 4.167 27.591 27.876 27.591h442.027c23.708 0 27.876-4.124 27.876-27.591v-240.498zM318.862 343.467h28.444v188.16h-28.444v-188.16z" />
<glyph unicode="&#xe949;" glyph-name="photo-none3" d="M512-64c-282.77 0-512 229.23-512 512s229.23 512 512 512c282.77 0 512-229.23 512-512v0c0-282.77-229.23-512-512-512v0zM857.6 765.013l-113.685-113.92h-58.496l142.933 143.147c-83.167 76.463-194.59 123.334-316.96 123.334-258.994 0-468.949-209.956-468.949-468.949 0-122.694 47.119-234.384 124.25-317.959l-0.292 0.321 92.373 92.587h58.475l-121.6-121.813c83.167-76.463 194.59-123.334 316.96-123.334 258.994 0 468.949 209.956 468.949 468.949 0 122.694-47.119 234.384-124.25 317.959l0.292-0.321zM593.856 539.52c-55.47-0.889-100.096-46.064-100.096-101.662 0-56.153 45.521-101.675 101.675-101.675s101.675 45.521 101.675 101.675c0 0.041 0 0.081 0 0.122v-0.006c-0.482 56.187-46.141 101.55-102.396 101.55-0.279 0-0.557-0.001-0.836-0.003h0.043zM593.856 378.88c-31.903 0.881-57.429 26.953-57.429 58.987 0 32.589 26.419 59.008 59.008 59.008 32.552 0 58.947-26.358 59.008-58.896v-0.006c-0.443-32.733-27.082-59.097-59.878-59.097-0.227 0-0.453 0.001-0.68 0.004h0.034zM726.976 609.92h-328.747c1.247 2.559 1.978 5.567 1.984 8.745v0.002c0 11.782-9.551 21.333-21.333 21.333v0h-81.92c-0.139 0.003-0.303 0.005-0.467 0.005-11.523 0-20.864-9.341-20.864-20.864 0-4.044 1.15-7.819 3.142-11.016l-0.051 0.088c-29.867-5.12-44.053-24.533-44.053-59.733v-231.040c0-41.813 19.797-61.44 62.293-61.44h430.080c42.496 0 62.293 19.627 62.293 61.44v231.040c0 41.813-19.797 61.44-62.293 61.44zM746.603 317.44c0-17.707 0-18.773-19.627-18.773h-430.016c-19.627 0-19.627 1.067-19.627 18.773v231.040c0 17.707 0 18.773 19.627 18.773h430.080c19.627 0 19.627-1.067 19.627-18.773v-231.040zM316.523 347.52h42.667v180.907h-42.667v-180.907z" />
<glyph unicode="&#xe94a;" glyph-name="plus" d="M702.427 484.571h-153.856v153.856c0 20.198-16.374 36.571-36.571 36.571s-36.571-16.374-36.571-36.571v0-153.856h-153.856c-20.198 0-36.571-16.374-36.571-36.571s16.374-36.571 36.571-36.571v0h153.856v-153.856c0-20.198 16.374-36.571 36.571-36.571s36.571 16.374 36.571 36.571v0 153.856h153.856c20.198 0 36.571 16.374 36.571 36.571s-16.374 36.571-36.571 36.571v0z" />
<glyph unicode="&#xe94b;" glyph-name="price-alert" d="M831.086 281.746c-60.748 44.284-99.777 115.201-99.777 195.234 0 2.669 0.043 5.329 0.13 7.977l-0.010-0.386c0 198.656-112.311 269.056-182.857 287.195v41.947c0 20.198-16.374 36.571-36.571 36.571s-36.571-16.374-36.571-36.571v0-41.947c-70.583-18.286-182.857-88.539-182.857-287.195 0.076-2.255 0.119-4.905 0.119-7.565 0-80.048-39.043-150.977-99.126-194.782l-0.687-0.477c-17.864-9.050-29.895-27.274-29.895-48.309 0-4.109 0.459-8.11 1.329-11.956l-0.069 0.361c10.752-29.842 39.534-29.842 91.758-29.842h512c52.187 0 80.969 0 91.721 29.842 0.808 3.497 1.271 7.512 1.271 11.635 0 21.026-12.038 39.241-29.598 48.127l-0.308 0.141zM282.514 265.143c51.507 55.011 83.139 129.182 83.139 210.741 0 3.055-0.044 6.099-0.133 9.133l0.010-0.446c0 209.993 144.823 219.429 146.286 219.429s146.286-9.435 146.286-219.429c-0.078-2.583-0.122-5.621-0.122-8.669 0-81.558 31.617-155.732 83.263-210.933l-0.161 0.174h-458.386zM511.817 118.857c-2.835-0.414-6.107-0.651-9.435-0.651-29.606 0-54.84 18.723-64.505 44.974l-0.154 0.476-71.278-16.457c22.356-59.762 78.976-101.537 145.353-101.537s122.997 41.776 145.002 100.47l0.351 1.068-71.278 16.311c-9.775-26.643-34.922-45.309-64.428-45.309-3.332 0-6.608 0.238-9.813 0.698l0.367-0.043z" />
<glyph unicode="&#xe94c;" glyph-name="question" d="M512 813.714c-201.978 0-365.714-163.736-365.714-365.714s163.736-365.714 365.714-365.714c201.978 0 365.714 163.736 365.714 365.714v0c-0.229 201.886-163.828 365.486-365.692 365.714h-0.022zM512 155.429c-161.583 0-292.571 130.989-292.571 292.571s130.989 292.571 292.571 292.571c161.583 0 292.571-130.989 292.571-292.571v0c-0.187-161.507-131.064-292.384-292.553-292.571h-0.018zM512 301.714c-20.198 0-36.571-16.374-36.571-36.571s16.374-36.571 36.571-36.571c20.198 0 36.571 16.374 36.571 36.571v0c0 20.198-16.374 36.571-36.571 36.571v0zM512 667.429c-80.791 0-146.286-65.494-146.286-146.286v0c0-20.198 16.374-36.571 36.571-36.571s36.571 16.374 36.571 36.571v0c0 40.396 32.747 73.143 73.143 73.143s73.143-32.747 73.143-73.143c0-40.396-32.747-73.143-73.143-73.143v0c-20.198 0-36.571-16.374-36.571-36.571v0-36.571c0-20.198 16.374-36.571 36.571-36.571s36.571 16.374 36.571 36.571v0 4.645c63.597 16.821 109.717 73.845 109.717 141.641 0 80.791-65.494 146.286-146.286 146.286-0.001 0-0.002 0-0.003 0v0z" />
<glyph unicode="&#xe94d;" glyph-name="radio" d="M682.667 448c0-94.257-76.41-170.667-170.667-170.667s-170.667 76.41-170.667 170.667c0 94.257 76.41 170.667 170.667 170.667v0c94.257 0 170.667-76.41 170.667-170.667v0zM512 903.111c251.351 0 455.111-203.76 455.111-455.111s-203.76-455.111-455.111-455.111c-251.351 0-455.111 203.76-455.111 455.111v0c0.291 251.233 203.877 454.82 455.083 455.111h0.028zM512 960c-282.77 0-512-229.23-512-512s229.23-512 512-512c282.77 0 512 229.23 512 512v0c0 282.77-229.23 512-512 512v0 0z" />
<glyph unicode="&#xe94e;" glyph-name="radio-none" d="M512 903.111c251.351 0 455.111-203.76 455.111-455.111s-203.76-455.111-455.111-455.111c-251.351 0-455.111 203.76-455.111 455.111v0c0.291 251.233 203.877 454.82 455.083 455.111h0.028zM512 960c-282.77 0-512-229.23-512-512s229.23-512 512-512c282.77 0 512 229.23 512 512v0c0 282.77-229.23 512-512 512v0 0z" />
<glyph unicode="&#xe94f;" glyph-name="ranking-const" horiz-adv-x="5696" d="M5188.096-64h-4680.704c-282.77 0-512 229.23-512 512s229.23 512 512 512v0h4680.704c282.77 0 512-229.23 512-512s-229.23-512-512-512v0z" />
<glyph unicode="&#xe950;" glyph-name="ranking-down" horiz-adv-x="707" d="M22.553 235.711l275.822-275.036c14.188-14.029 33.703-22.695 55.243-22.695s41.055 8.666 55.25 22.702l-0.007-0.007 275.822 275.036c12.049 13.656 19.404 31.701 19.404 51.465 0 43.052-34.901 77.953-77.953 77.953-19.764 0-37.809-7.355-51.55-19.477l0.085 0.073-142.705-142.39v679.419c0 43.096-34.936 78.032-78.032 78.032s-78.032-34.936-78.032-78.032v0-679.419l-142.705 142.39c-14.133 14.212-33.7 23.007-55.322 23.007-43.086 0-78.015-34.928-78.015-78.015 0-21.465 8.669-40.905 22.697-55.011l-0.004 0.004z" />
<glyph unicode="&#xe951;" glyph-name="ranking-orange1" horiz-adv-x="724" d="M614.93 302.516l-84.076-31.422 33.128-88.431-21.951 9.965-9.92-21.816-33.038 88.206-84.076-31.422 109.169-291.507 62.485 137.763 137.539-62.53zM191.63 170.768l-9.92 21.816-21.995-9.965 33.173 88.431-84.076 31.422-109.214-291.327 137.494 62.53 62.485-137.763 109.169 291.507-84.076 31.422zM493.82 293.718l27.786 79.902 84.076-4.803-4.803 84.48 79.543 27.876-36.629 76.311 62.844 56.38-62.844 56.335 36.629 76.311-79.543 27.876 4.803 84.48-84.076-4.848-27.786 79.947-75.907-36.809-56.066 63.158-56.021-63.428-75.952 36.809-27.741-79.947-84.076 4.848 4.803-84.48-79.543-27.876 36.629-76.311-62.844-56.335 62.844-56.38-36.629-76.311 79.543-27.876-4.803-84.48 84.076 4.803 27.741-79.902 75.952 36.764 56.021-63.158 56.066 63.158zM361.892 402.573l-34.026 38.335-46.28-22.444-16.878 48.614-51.308-2.918 2.918 51.442-48.614 17.058 22.444 46.46-38.47 34.564 38.47 34.474-22.444 46.46 48.614 17.058-2.918 51.487 51.308-2.963 16.878 48.614 46.28-22.444 34.026 38.335 34.026-38.335 46.235 22.444 16.923-48.614 51.218 2.963-2.918-51.487 48.659-17.013-22.444-46.505 38.47-34.474-38.47-34.564 22.444-46.46-48.659-17.058 2.918-51.442-51.218 2.918-16.923-48.614-46.235 22.444z" />
<glyph unicode="&#xe952;" glyph-name="ranking-orange2" horiz-adv-x="745" d="M584.791 226.605l62.597-166.982-64.404 29.305-29.221-64.404-62.496 166.863-31.636-11.824 91.21-243.362 48.983 107.982 107.864-48.983-91.21 243.345zM191.524 24.524l-29.221 64.404-64.354-29.289 62.496 166.965-31.636 11.824-91.21-243.345 107.83 48.983 48.983-107.982 91.21 243.362-31.619 11.824zM745.1 585.668l-67.918 60.891 39.592 82.325-85.94 30.082 5.202 91.21-90.821-5.219-30.032 86.345-81.971-39.761-60.57 68.255-60.57-68.222-82.021 39.761-29.93-86.345-90.838 5.219 5.169-91.21-85.94-30.082 39.592-82.325-67.918-60.891 67.918-60.807-39.592-82.258 85.94-30.15-5.169-91.21 90.838 5.219 29.93-86.328 82.021 39.727 60.57-68.357 60.57 68.239 81.971-39.727 30.032 86.328 90.821-5.219-5.202 91.21 85.94 30.15-39.592 82.258zM619.653 444.276l-24.002-8.445 1.469-25.336 3.040-53.459-78.474 4.51-8.445-24.086-17.549-50.469-47.818 23.174-22.87 11.165-52.294-58.915-35.302 39.778-16.891 19.12-70.857-34.322-17.465 50.436-8.445 24.12-78.525-4.51 3.007 53.476 1.436 25.336-23.968 8.445-50.317 17.651 34.221 71.11-58.746 52.598 58.746 52.648-34.237 71.178 74.302 26.045-1.453 25.336-3.007 53.476 78.525-4.527 8.445 24.137 17.465 50.419 47.835-23.157 22.802-11.199 16.992 19.12 35.302 39.778 35.302-39.778 17.127-19.12 70.823 34.339 17.549-50.469 8.445-24.103 78.474 4.527-3.040-53.459-1.469-25.336 24.019-8.445 50.284-17.6-34.204-71.127 18.884-16.891 39.862-35.758-58.746-52.598 34.204-71.11z" />
<glyph unicode="&#xe953;" glyph-name="ranking-up" horiz-adv-x="707" d="M684.539 662.045l-275.875 275.797c-7.056 7.094-15.482 12.818-24.849 16.742l-0.507 0.189c-8.822 3.755-19.084 5.938-29.856 5.938-21.553 0-41.065-8.74-55.185-22.868l-275.798-275.798c-14.695-14.207-23.818-34.097-23.818-56.118 0-43.089 34.93-78.019 78.019-78.019 22.021 0 41.911 9.123 56.097 23.796l0.021 0.022 142.697 142.697v-681.028c0-43.089 34.93-78.019 78.019-78.019s78.019 34.93 78.019 78.019v0 681.028l142.697-142.697c14.016-13.55 33.133-21.901 54.201-21.901 43.089 0 78.019 34.93 78.019 78.019 0 21.068-8.35 40.185-21.922 54.223l0.021-0.022z" />
<glyph unicode="&#xe954;" glyph-name="search" d="M848.713 144.713l-165.998 165.998c41.763 52.57 67.002 119.903 67.002 193.13 0 172.227-139.618 311.845-311.845 311.845s-311.845-139.618-311.845-311.845c0-172.227 139.618-311.845 311.845-311.845 73.227 0 140.56 25.24 193.772 67.494l-0.642-0.492 165.998-165.998c6.57-6.352 15.531-10.266 25.407-10.266 20.198 0 36.571 16.374 36.571 36.571 0 9.875-3.914 18.837-10.276 25.417l0.010-0.010zM201.143 502.857c0 131.286 106.428 237.714 237.714 237.714s237.714-106.428 237.714-237.714c0-131.286-106.428-237.714-237.714-237.714v0c-131.219 0.166-237.548 106.495-237.714 237.698v0.016z" />
<glyph unicode="&#xe955;" glyph-name="send-mail1" d="M512 960v0c-282.77 0-512-229.23-512-512v0c0-282.77 229.23-512 512-512s512 229.23 512 512c0 282.77-229.23 512-512 512zM512 938.56c270.924-0.006 490.549-219.635 490.549-490.56 0-270.929-219.631-490.56-490.56-490.56s-490.56 219.631-490.56 490.56v0c0 0.003 0 0.007 0 0.011 0 270.923 219.626 490.549 490.549 490.549 0.008 0 0.015 0 0.023 0h-0.001zM721.184 626.347h-407.701c-20.125-0.717-36.168-17.205-36.168-37.439 0-0.413 0.007-0.824 0.020-1.234l-0.002 0.060v-279.467c-0.012-0.35-0.018-0.761-0.018-1.174 0-20.234 16.043-36.722 36.102-37.437l0.065-0.002h407.701c20.125 0.717 36.168 17.205 36.168 37.439 0 0.413-0.007 0.824-0.020 1.234l0.002-0.060v279.467c0.012 0.35 0.018 0.761 0.018 1.174 0 20.234-16.043 36.722-36.102 37.437l-0.065 0.002zM313.483 605.013h407.701c7.158-0.451 12.959-5.732 14.205-12.599l0.014-0.094-199.371-164.053c-0.392-0.325-0.741-0.675-1.056-1.054l-0.011-0.013c-5.051-2.955-11.122-4.699-17.6-4.699s-12.549 1.745-17.768 4.79l0.168-0.090c-0.325 0.392-0.675 0.741-1.054 1.056l-0.013 0.011-199.371 164.053c1.254 6.942 7.024 12.213 14.108 12.691l0.047 0.003zM721.184 290.987h-407.701c-8.347 0.695-14.859 7.641-14.859 16.108 0 0.413 0.015 0.822 0.046 1.226l-0.003-0.054v256.853l185.899-152.853c8.978-6.922 20.386-11.094 32.768-11.094s23.79 4.172 32.894 11.187l-0.126-0.093 185.899 152.853v-256.853c0.027-0.351 0.043-0.76 0.043-1.172 0-8.467-6.511-15.413-14.8-16.104l-0.059-0.004z" />
<glyph unicode="&#xe956;" glyph-name="site-none1" d="M512-64c-282.77 0-512 229.23-512 512s229.23 512 512 512c282.77 0 512-229.23 512-512v0c0-282.77-229.23-512-512-512v0zM21.429 448c0-0.146 0-0.319 0-0.492 0-131.573 51.993-251.003 136.555-338.864l-0.149 0.156 116.992 115.2h30.4l-132.267-130.347c87.942-84.359 207.548-136.301 339.286-136.301 270.858 0 490.432 219.574 490.432 490.432 0 129.12-49.898 246.585-131.462 334.165l0.273-0.296-122.24-120.32h-30.4l137.771 135.68c-88.544 87.501-210.312 141.551-344.704 141.551-270.888 0-490.485-219.598-490.485-490.485 0-0.028 0-0.055 0-0.083v0.004zM685.888 568.213l-167.349 133.44c-0.66 0.488-1.407 0.949-2.193 1.346l-0.090 0.041c-0.085 0-0.16 0.107-0.245 0.107-1.055 0.472-2.287 0.748-3.583 0.748-0.045 0-0.091 0-0.136-0.001h0.007c-0.128 0-0.256 0.107-0.405 0.107h-144.459c-0.232 0.006-0.506 0.009-0.78 0.009-18.447 0-33.461-14.703-33.96-33.029l-0.001-0.046v-403.2c0.501-18.373 15.514-33.076 33.961-33.076 0.274 0 0.548 0.003 0.82 0.010l-0.041-0.001h288.917c0.232-0.006 0.506-0.009 0.78-0.009 18.447 0 33.461 14.703 33.96 33.029l0.001 0.046v290.133c0 0.427 0.213 0.747 0.213 1.067-0.007 3.963-2.175 7.419-5.388 9.252l-0.052 0.028zM522.56 671.147l127.392-101.547h-113.984c-0.239-0.016-0.518-0.025-0.799-0.025-6.671 0-12.135 5.167-12.607 11.718l-0.002 0.041v89.813zM669.76 267.733c-0.475-6.591-5.939-11.759-12.609-11.759-0.281 0-0.56 0.009-0.836 0.027l0.038-0.002h-288.917c-0.239-0.016-0.518-0.025-0.799-0.025-6.671 0-12.135 5.167-12.607 11.718l-0.002 0.041v403.2c0.475 6.591 5.939 11.759 12.609 11.759 0.281 0 0.56-0.009 0.836-0.027l-0.038 0.002h133.792v-101.333c0.501-18.373 15.514-33.076 33.961-33.076 0.274 0 0.548 0.003 0.82 0.010l-0.041-0.001h133.792v-280.533z" />
<glyph unicode="&#xe957;" glyph-name="site-none2" d="M512-64c-282.77 0-512 229.23-512 512s229.23 512 512 512c282.77 0 512-229.23 512-512v0c0-282.77-229.23-512-512-512v0zM28.316 448c0-0.142 0-0.31 0-0.478 0-128.432 50.218-245.135 132.089-331.545l-0.206 0.219 89.956 90.027h40.235l-110.080-110.080c86.332-81.378 203.011-131.392 331.371-131.392 267.060 0 483.556 216.495 483.556 483.556 0 128.353-50.008 245.026-131.603 331.597l0.225-0.241-132.58-132.551h-40.235l152.69 152.747c-86.392 81.655-203.264 131.854-331.861 131.854-267.060 0-483.556-216.495-483.556-483.556 0-0.055 0-0.11 0-0.165v0.009zM667.164 521.956c0 0.021 0 0.046 0 0.070 0 5.168-2.79 9.684-6.946 12.125l-0.066 0.036-132.11 109.653c-1.010 0.808-2.155 1.521-3.381 2.090l-0.104 0.043c-0.018-0.003-0.039-0.005-0.061-0.005-0.124 0-0.235 0.057-0.308 0.146l-0.001 0.001c-1.348 0.54-2.911 0.853-4.548 0.853-0.001 0-0.002 0-0.004 0v0c-0.242 0-0.441 0.142-0.668 0.142h-114.588c-0.085 0.001-0.185 0.001-0.286 0.001-18.132 0-32.852-14.607-33.036-32.695v-332.817c0.184-18.106 14.905-32.712 33.037-32.712 0.101 0 0.201 0 0.301 0.001h229.162c0.085-0.001 0.185-0.001 0.286-0.001 18.132 0 32.852 14.607 33.036 32.695v238.95c0.043 0.569 0.284 0.996 0.284 1.422zM533.191 602.596l80.057-66.418h-75.193c-0.068-0.004-0.148-0.006-0.229-0.006-2.435 0-4.433 1.872-4.634 4.255l-0.001 0.017v62.151zM633.557 277.333h-229.177c-0.096-0.007-0.209-0.011-0.322-0.011-2.42 0-4.401 1.883-4.556 4.264l-0.001 0.014v332.8c0.156 2.395 2.136 4.278 4.556 4.278 0.113 0 0.226-0.004 0.337-0.012l-0.015 0.001h100.366v-78.222c0.184-18.106 14.905-32.712 33.037-32.712 0.096 0 0.191 0 0.286 0.001h100.365v-226.133c-0.148-2.394-2.125-4.279-4.543-4.279-0.118 0-0.235 0.004-0.351 0.013l0.015-0.001z" />
<glyph unicode="&#xe958;" glyph-name="site-none3" d="M512-64c-282.77 0-512 229.23-512 512s229.23 512 512 512c282.77 0 512-229.23 512-512v0c0-282.77-229.23-512-512-512v0zM857.6 765.013l-113.685-113.92h-58.496l142.933 143.147c-83.167 76.463-194.59 123.334-316.96 123.334-258.994 0-468.949-209.956-468.949-468.949 0-122.694 47.119-234.384 124.25-317.959l-0.292 0.321 92.373 92.587h58.496l-121.6-121.813c83.148-76.388 194.518-123.209 316.824-123.209 258.994 0 468.949 209.956 468.949 468.949 0 122.635-47.073 234.275-124.137 317.837l0.295-0.323zM672.213 533.333c0 0.013 0 0.028 0 0.043 0 7.642-4.063 14.335-10.147 18.037l-0.093 0.053-146.965 126.080c-1.537 1.367-3.313 2.513-5.247 3.363l-0.129 0.050c-0.053-0.005-0.114-0.009-0.176-0.009-0.319 0-0.618 0.082-0.878 0.227l0.009-0.005c-1.89 0.809-4.090 1.28-6.4 1.28v0c-0.384 0-0.683 0.213-1.067 0.213h-128c-23.564 0-42.667-19.103-42.667-42.667v0-384c0-23.564 19.103-42.667 42.667-42.667v0h256c23.564 0 42.667 19.103 42.667 42.667v0 275.2c0.064 0.853 0.427 1.493 0.427 2.133zM522.453 615.040l70.4-60.373h-70.4v60.373zM373.12 256v384h106.667v-85.333c0-23.564 19.103-42.667 42.667-42.667v0h106.667v-256h-256z" />
<glyph unicode="&#xe959;" glyph-name="social-fb" horiz-adv-x="547" d="M525.824 960h-130.987c-147.2 0-242.261-98.901-242.261-252.032v-116.181h-131.755c-11.379-0.096-20.566-9.343-20.566-20.735 0-0.060 0-0.12 0.001-0.181v0.009-168.363c0-0.038 0-0.083 0-0.129 0-11.392 9.187-20.639 20.557-20.735h131.721v-424.832c0-0.051-0.001-0.111-0.001-0.171 0-11.407 9.211-20.663 20.602-20.736h171.868c11.379 0.096 20.566 9.343 20.566 20.735 0 0.060 0 0.12-0.001 0.181v-0.009 424.832h154.027c11.397 0.072 20.608 9.328 20.608 20.736 0 0.045 0 0.090 0 0.135v-0.007 168.363c-0.024 5.743-2.314 10.947-6.021 14.768l0.005-0.005c-3.717 3.777-8.879 6.124-14.588 6.144h-154.031v98.56c0 47.317 11.136 71.381 71.936 71.381h88.277c11.379 0.096 20.566 9.343 20.566 20.735 0 0.060 0 0.12-0.001 0.181v-0.009 156.331c0.001 0.089 0.002 0.194 0.002 0.3 0 11.378-9.164 20.616-20.514 20.735h-0.011z" />
<glyph unicode="&#xe95a;" glyph-name="sort" d="M825.929 290.743c-6.54 6.578-15.594 10.649-25.6 10.649s-19.060-4.071-25.598-10.647l-0.002-0.002-46.811-47.067v457.984c0.012 0.343 0.018 0.746 0.018 1.151 0 20.016-16.226 36.242-36.242 36.242s-36.242-16.226-36.242-36.242c0-0.405 0.007-0.808 0.020-1.21l-0.002 0.059v-458.057l-46.811 47.067c-6.54 6.578-15.594 10.649-25.6 10.649s-19.060-4.071-25.598-10.647l-0.002-0.002c-6.54-6.605-10.58-15.694-10.58-25.728s4.041-19.123 10.583-25.731l-0.003 0.003 108.654-109.166c6.535-6.587 15.592-10.664 25.6-10.664s19.064 4.077 25.598 10.662l0.002 0.002 108.654 109.166c6.55 6.607 10.598 15.704 10.598 25.746 0 10.061-4.063 19.173-10.637 25.785l0.002-0.002zM355.109 763.794c-6.54 6.578-15.594 10.649-25.6 10.649s-19.060-4.071-25.598-10.647l-0.002-0.002-108.654-109.202c-6.54-6.605-10.58-15.694-10.58-25.728s4.041-19.123 10.583-25.731l-0.003 0.003c6.548-6.56 15.6-10.618 25.6-10.618s19.052 4.058 25.599 10.618l0.001 0.001 46.811 47.067v-458.203c-0.012-0.343-0.018-0.746-0.018-1.151 0-20.016 16.226-36.242 36.242-36.242s36.242 16.226 36.242 36.242c0 0.405-0.007 0.808-0.020 1.21l0.002-0.059v458.203l46.811-47.067c6.54-6.578 15.594-10.649 25.6-10.649s19.060 4.071 25.598 10.647l0.002 0.002c6.54 6.605 10.58 15.694 10.58 25.728s-4.041 19.123-10.583 25.731l0.003-0.003z" />
<glyph unicode="&#xe95d;" glyph-name="tag" d="M411.941-27.977c0 0 0.001 0 0.001 0 4.651 0 9.114 0.804 13.258 2.28l-0.276-0.086 501.358 173.019c14.532 4.67 24.864 18.067 24.864 33.877 0 4.407-0.803 8.627-2.27 12.521l0.081-0.245-228.096 594.213c-4.084 10.216-12.299 18.036-22.524 21.501l-0.26 0.077-326.693 111.543c-3.831 1.38-8.251 2.177-12.858 2.177-13.726 0-25.799-7.080-32.764-17.788l-0.092-0.151-174.665-284.562c-3.226-5.143-5.139-11.394-5.139-18.092 0-4.436 0.839-8.676 2.368-12.569l-0.081 0.234 228.133-594.249c3.659-9.164 10.616-16.358 19.367-20.241l0.235-0.093c4.727-2.125 10.246-3.364 16.055-3.365v0zM864.622 202.423l-429.97-148.443-209.042 544.585 149.943 244.078 280.21-95.707zM392.85 674.194c6.956-16.507 23.002-27.884 41.704-27.884 5.465 0 10.703 0.971 15.55 2.751l-0.313-0.101c17.022 5.451 29.129 21.135 29.129 39.646 0 5.173-0.945 10.124-2.673 14.692l0.095-0.286c-6.95 16.494-22.983 27.862-41.671 27.862-5.478 0-10.727-0.977-15.584-2.765l0.313 0.101c-17.022-5.437-29.133-21.115-29.133-39.621 0-5.1 0.92-9.986 2.603-14.499l-0.094 0.287zM490.642 172.873l250.661 86.491-12.983 33.829-250.661-86.491zM460.215 252.087l250.661 86.491-12.983 33.829-250.661-86.491z" />
<glyph unicode="&#xe95e;" glyph-name="up" d="M775.57 510.427l-256 256c-6.618 6.616-15.759 10.708-25.856 10.708s-19.238-4.092-25.856-10.708l-256-256c-6.888-6.659-11.165-15.983-11.165-26.305 0-20.198 16.374-36.571 36.571-36.571 10.322 0 19.646 4.277 26.296 11.155l193.583 193.583v-496.859c0-20.198 16.374-36.571 36.571-36.571s36.571 16.374 36.571 36.571v0 496.823l193.573-193.536c6.57-6.352 15.531-10.266 25.407-10.266 20.198 0 36.571 16.374 36.571 36.571 0 9.875-3.914 18.837-10.276 25.417l0.010-0.010z" />
<glyph unicode="&#xe95f;" glyph-name="user" d="M630.455 442.551c50.58 40.549 82.688 102.331 82.688 171.613 0 121.187-98.242 219.429-219.429 219.429s-219.429-98.242-219.429-219.429c0-69.282 32.108-131.064 82.257-171.278l0.431-0.334c-120.101-45.934-192.402-155.831-192.402-305.408 0-20.198 16.374-36.571 36.571-36.571v0h585.143c20.198 0 36.571 16.374 36.571 36.571v0c0 149.577-72.302 259.474-192.402 305.408zM347.429 612.571c0 80.791 65.494 146.286 146.286 146.286s146.286-65.494 146.286-146.286c0-80.791-65.494-146.286-146.286-146.286v0c-80.354 1.077-145.208 65.931-146.285 146.183l-0.001 0.103zM239.543 173.714c14.153 136.338 108.837 219.429 254.171 219.429s239.982-83.090 254.135-219.429h-508.343z" />
<glyph unicode="&#xe960;" glyph-name="view-grid" d="M402.286 813.714h-182.857c-40.396 0-73.143-32.747-73.143-73.143v0-182.857c0-40.396 32.747-73.143 73.143-73.143v0h182.857c40.396 0 73.143 32.747 73.143 73.143v0 182.857c0 40.396-32.747 73.143-73.143 73.143v0zM219.429 557.714v182.857h182.857v-182.857h-182.857zM804.571 813.714h-182.857c-40.396 0-73.143-32.747-73.143-73.143v0-182.857c0-40.396 32.747-73.143 73.143-73.143v0h182.857c40.396 0 73.143 32.747 73.143 73.143v0 182.857c0 40.396-32.747 73.143-73.143 73.143v0zM621.714 557.714v182.857h182.857v-182.857h-182.857zM402.286 411.429h-182.857c-40.396 0-73.143-32.747-73.143-73.143v0-182.857c0-40.396 32.747-73.143 73.143-73.143v0h182.857c40.396 0 73.143 32.747 73.143 73.143v0 182.857c0 40.396-32.747 73.143-73.143 73.143v0zM219.429 155.429v182.857h182.857v-182.857h-182.857zM804.571 411.429h-182.857c-40.396 0-73.143-32.747-73.143-73.143v0-182.857c0-40.396 32.747-73.143 73.143-73.143v0h182.857c40.396 0 73.143 32.747 73.143 73.143v0 182.857c0 40.396-32.747 73.143-73.143 73.143v0zM621.714 155.429v182.857h182.857v-182.857h-182.857z" />
<glyph unicode="&#xe961;" glyph-name="view-list" d="M804.571 813.714h-365.714c-40.396 0-73.143-32.747-73.143-73.143v0-73.143c0-40.396 32.747-73.143 73.143-73.143v0h365.714c40.396 0 73.143 32.747 73.143 73.143v0 73.143c0 40.396-32.747 73.143-73.143 73.143v0zM804.571 667.429h-365.714v73.143h365.714v-73.143zM804.571 557.714h-365.714c-40.396 0-73.143-32.747-73.143-73.143v0-73.143c0-40.396 32.747-73.143 73.143-73.143v0h365.714c40.396 0 73.143 32.747 73.143 73.143v0 73.143c0 40.396-32.747 73.143-73.143 73.143v0zM438.857 411.429v73.143h365.714v-73.143h-365.714zM804.571 301.714h-365.714c-40.396 0-73.143-32.747-73.143-73.143v0-73.143c0-40.396 32.747-73.143 73.143-73.143v0h365.714c40.396 0 73.143 32.747 73.143 73.143v0 73.143c0 40.396-32.747 73.143-73.143 73.143v0zM438.857 155.429v73.143h365.714v-73.143h-365.714zM256 813.714h-36.571c-40.396 0-73.143-32.747-73.143-73.143v0-73.143c0-40.396 32.747-73.143 73.143-73.143v0h36.571c40.396 0 73.143 32.747 73.143 73.143v0 73.143c0 40.396-32.747 73.143-73.143 73.143v0zM219.429 667.429v73.143h36.571v-73.143h-36.571zM256 557.714h-36.571c-40.396 0-73.143-32.747-73.143-73.143v0-73.143c0-40.396 32.747-73.143 73.143-73.143v0h36.571c40.396 0 73.143 32.747 73.143 73.143v0 73.143c0 40.396-32.747 73.143-73.143 73.143v0zM219.429 411.429v73.143h36.571v-73.143h-36.571zM256 301.714h-36.571c-40.396 0-73.143-32.747-73.143-73.143v0-73.143c0-40.396 32.747-73.143 73.143-73.143v0h36.571c40.396 0 73.143 32.747 73.143 73.143v0 73.143c0 40.396-32.747 73.143-73.143 73.143v0zM219.429 155.429v73.143h36.571v-73.143h-36.571z" />
<glyph unicode="&#xe962;" glyph-name="yes" horiz-adv-x="1117" d="M1117.091 801.745l-764.369-867.421-6.982 17.687-344.995 398.15 152.39 163.654 203.497-248.553 618.31 693.62z" />
<glyph unicode="&#xe963;" glyph-name="zoom" d="M193.573 181.285l123.209 123.209c-37.918 48.869-60.785 111.067-60.785 178.606 0 0.518 0.001 1.035 0.004 1.552v-0.080c0 161.583 130.989 292.571 292.571 292.571s292.571-130.989 292.571-292.571c0-161.583-130.989-292.571-292.571-292.571v0c-0.437-0.002-0.954-0.004-1.472-0.004-67.539 0-129.737 22.868-179.273 61.283l0.667-0.498-123.209-123.209c-6.57-6.352-15.531-10.266-25.407-10.266-20.198 0-36.571 16.374-36.571 36.571 0 9.875 3.914 18.837 10.276 25.417l-0.010-0.010zM768 484.571c0 121.187-98.242 219.429-219.429 219.429s-219.429-98.242-219.429-219.429c0-121.187 98.242-219.429 219.429-219.429v0c0.688-0.008 1.502-0.012 2.316-0.012 119.915 0 217.125 97.21 217.125 217.125 0 0.814-0.004 1.628-0.013 2.44l0.001-0.124zM438.857 521.143h73.143v73.143c0 20.198 16.374 36.571 36.571 36.571s36.571-16.374 36.571-36.571v0-73.143h73.143c20.198 0 36.571-16.374 36.571-36.571s-16.374-36.571-36.571-36.571v0h-73.143v-73.143c0-20.198-16.374-36.571-36.571-36.571s-36.571 16.374-36.571 36.571v0 73.143h-73.143c-20.198 0-36.571 16.374-36.571 36.571s16.374 36.571 36.571 36.571v0z" />
<glyph unicode="&#xe964;" glyph-name="bell" d="M891.733 254.037c-72.186 51.079-118.739 134.237-118.739 228.267 0 2.94 0.046 5.87 0.136 8.789l-0.010-0.427c0 231.765-133.973 313.899-217.6 335.061v48.939c0 24.035-19.485 43.52-43.52 43.52s-43.52-19.485-43.52-43.52v0-48.939c-84.053-21.333-217.6-103.296-217.6-335.061 0.073-2.385 0.115-5.189 0.115-8.004 0-94.229-46.729-177.545-118.277-228.038l-0.878-0.588c-21.022-10.329-35.235-31.586-35.235-56.163 0-4.865 0.557-9.6 1.611-14.145l-0.082 0.421c12.8-34.816 46.933-34.816 109.227-34.816h609.28c61.867 0 96.427 0 109.227 34.816 0.921 4.026 1.449 8.65 1.449 13.396 0 24.757-14.364 46.16-35.212 56.328l-0.371 0.163zM238.933 234.667c61.34 63.939 99.108 150.902 99.108 246.687 0 3.275-0.044 6.539-0.132 9.792l0.010-0.48c0 244.992 172.373 256 174.080 256s174.080-11.008 174.080-256c-0.085-2.908-0.134-6.33-0.134-9.763 0-95.569 37.603-182.355 98.82-246.37l-0.127 0.133h-545.707zM512 64c-3.564-0.552-7.676-0.867-11.861-0.867-34.839 0-64.577 21.839-76.272 52.573l-0.187 0.56-84.907-19.2c27.681-69.888 94.68-118.416 173.013-118.416s145.333 48.528 172.574 117.161l0.439 1.255-84.907 19.029c-11.642-31.193-41.182-53.004-75.816-53.004-4.262 0-8.447 0.33-12.531 0.967l0.454-0.058z" />
<glyph unicode="&#xe965;" glyph-name="chart-line" d="M896 21.333h-768c-23.564 0-42.667 19.103-42.667 42.667v0 768c0 23.564 19.103 42.667 42.667 42.667s42.667-19.103 42.667-42.667v0-725.333h725.333c23.564 0 42.667-19.103 42.667-42.667s-19.103-42.667-42.667-42.667v0zM261.547 205.013c-23.504 0.079-42.528 19.151-42.528 42.666 0 10.994 4.158 21.017 10.988 28.582l-0.033-0.037 150.187 166.955c7.839 8.66 19.123 14.077 31.671 14.077 9.424 0 18.135-3.055 25.195-8.23l-0.12 0.084 151.040-109.952 208.213 252.843c7.902 9.584 19.776 15.648 33.067 15.648 23.617 0 42.762-19.145 42.762-42.762 0-10.326-3.66-19.798-9.754-27.188l0.058 0.073-233.813-283.861c-7.883-9.521-19.705-15.54-32.933-15.54-9.432 0-18.149 3.060-25.212 8.243l0.119-0.083-152.747 110.933-124.587-138.368c-7.719-8.781-18.975-14.293-31.519-14.293-0.019 0-0.038 0-0.057 0h0.003z" />
</font>
</defs>
</svg>
